<?xml version="1.0" encoding="UTF-8" standalone="no"?><!DOCTYPE svg PUBLIC "-//W3C//DTD SVG 1.1//EN" "http://www.w3.org/Graphics/SVG/1.1/DTD/svg11.dtd"><svg width="100%" height="100%" viewBox="0 0 100 100" version="1.1" xmlns="http://www.w3.org/2000/svg" xmlns:xlink="http://www.w3.org/1999/xlink" xml:space="preserve" style="fill-rule:evenodd;clip-rule:evenodd;stroke-linejoin:round;stroke-miterlimit:1.41421;"><g><path d="M40.792,22.722c-13.929,-1.246 -17.929,8.001 -17.487,21.31c-0.415,10.057 5.722,20.616 7.59,30.314c1.496,7.76 3.655,8.601 8.901,8.98c1.763,2.176 8.838,2.636 10.95,0.792c2.58,0.239 8.844,-0.286 9.721,-5.674c1.78,-7.662 9.078,-19.818 11.632,-27.126c6.296,-18.018 0.939,-27.979 -17.664,-26.988c-6.094,0.324 -13.551,-1.6 -13.643,-1.608Z" style="fill:#ef7022;"/><path d="M27.829,63.906c1.236,3.546 2.412,7.046 3.066,10.44c1.496,7.76 3.655,8.601 8.901,8.98c1.763,2.176 8.838,2.636 10.95,0.792c2.58,0.239 8.844,-0.286 9.721,-5.674c0.723,-3.112 2.357,-6.967 4.213,-10.937c-3.756,3.76 -6.157,4.136 -8.988,-0.878c-6.439,-13.195 -15.533,-15.515 -19.906,-1.946c-2.27,7.915 -4.696,4.862 -7.957,-0.777Z" style="fill:#ee6529;"/><path d="M29.335,66.391c1.112,3.193 2.603,5.995 3.192,9.05c1.346,6.986 3.29,7.743 8.012,8.084c1.587,1.959 7.956,2.374 9.858,0.713c2.322,0.216 7.961,-0.257 8.751,-5.107c0.651,-2.802 2.122,-6.273 3.793,-9.846c-3.381,3.385 -5.543,3.723 -8.092,-0.791c-5.796,-11.878 -13.983,-13.966 -17.919,-1.751c-2.043,7.125 -4.659,4.724 -7.595,-0.352Z" style="fill:#ee5e2d;"/><path d="M31.045,68.989c0.989,2.839 2.59,4.831 3.113,7.548c1.197,6.211 2.926,6.884 7.125,7.188c1.411,1.741 7.074,2.11 8.765,0.634c2.065,0.191 7.079,-0.229 7.781,-4.542c0.579,-2.492 1.886,-5.577 3.372,-8.754c-3.006,3.009 -4.929,3.31 -7.195,-0.704c-5.153,-10.561 -12.432,-12.418 -15.933,-1.557c-1.816,6.336 -4.418,4.701 -7.028,0.187Z" style="fill:#ed5532;"/><path d="M32.712,71.376c0.865,2.485 2.62,3.878 3.078,6.256c1.048,5.437 2.561,6.026 6.236,6.292c1.236,1.525 6.193,1.847 7.673,0.555c1.807,0.168 6.196,-0.2 6.811,-3.975c0.506,-2.181 1.651,-4.882 2.952,-7.664c-2.632,2.635 -4.315,2.898 -6.298,-0.615c-4.511,-9.245 -10.883,-10.87 -13.947,-1.363c-1.59,5.545 -4.22,4.465 -6.505,0.514Z" style="fill:#ec4e35;"/><path d="M34.836,74.043c0.742,2.132 2.193,2.645 2.586,4.684c0.898,4.663 2.196,5.168 5.348,5.396c1.059,1.308 5.31,1.584 6.58,0.476c1.55,0.144 5.314,-0.172 5.841,-3.409c0.434,-1.871 1.416,-4.187 2.532,-6.572c-2.257,2.259 -3.7,2.485 -5.402,-0.528c-3.868,-7.928 -9.333,-9.322 -11.961,-1.169c-1.363,4.756 -3.565,4.511 -5.524,1.122Z" style="fill:#ec4738;"/><path d="M37.133,76.3c0.619,1.777 1.593,1.822 1.92,3.523c0.749,3.888 1.832,4.309 4.46,4.5c0.884,1.09 4.429,1.32 5.488,0.397c1.292,0.119 4.431,-0.144 4.871,-2.844c0.362,-1.56 1.181,-3.491 2.111,-5.48c-1.882,1.884 -3.086,2.072 -4.504,-0.441c-3.226,-6.611 -7.784,-7.774 -9.975,-0.974c-1.137,3.966 -2.737,4.145 -4.371,1.319Z" style="fill:#ec423b;"/><path d="M39.234,78.287c0.495,1.423 1.189,1.269 1.451,2.631c0.6,3.114 1.467,3.451 3.572,3.604c0.707,0.873 3.547,1.058 4.395,0.318c1.035,0.096 3.549,-0.115 3.901,-2.277c0.29,-1.249 0.945,-2.796 1.691,-4.39c-1.508,1.509 -2.472,1.66 -3.608,-0.352c-2.584,-5.295 -6.233,-6.226 -7.988,-0.781c-0.911,3.176 -2.106,3.51 -3.414,1.247Z" style="fill:#eb3e3d;"/><path d="M41.305,79.698c0.373,1.069 -3.142,1.127 -2.944,2.151c0.696,3.614 12.333,4.713 12.873,1.4c0.218,-0.939 0.71,-2.101 1.27,-3.298c-1.133,1.134 -1.857,1.247 -2.71,-0.265c-1.942,-3.979 -4.684,-4.678 -6.003,-0.587c-0.684,2.387 -1.502,2.299 -2.486,0.599Z" style="fill:#eb393f;"/><path d="M41.448,26.136c-10.558,-4.217 -14.326,2.91 -15.292,9.867c-1.166,8.395 -0.49,10.667 0.37,17.68c0.316,2.579 3.054,11.213 4.641,13.147c5.551,6.764 5.136,-4.652 5.483,-7.289c0.494,-3.748 -0.018,-13.002 6.296,-22.26c2.84,-4.164 20.122,-6.642 17.379,-9.034c-4.005,-3.495 -13.725,-0.053 -18.877,-2.111Z" style="fill:#f07921;"/><path d="M40.181,27.063c-9.013,-3.746 -12.257,2.966 -13.105,9.469c-1.025,7.848 -0.454,9.955 0.258,16.478c0.263,2.4 2.576,10.401 3.926,12.176c4.724,6.208 4.406,-4.428 4.711,-6.893c0.434,-3.503 0.026,-12.122 5.455,-20.866c2.441,-3.932 17.223,-6.547 14.887,-8.73c-3.414,-3.187 -11.734,0.194 -16.132,-1.634Z" style="fill:#f07f1e;"/><path d="M39.037,27.965c-7.607,-3.336 -10.373,2.959 -11.113,9.021c-0.894,7.316 -0.418,9.266 0.161,15.321c0.213,2.228 2.14,9.632 3.276,11.26c3.972,5.697 3.74,-4.191 4.007,-6.488c0.38,-3.265 0.065,-11.274 4.685,-19.495c2.078,-3.698 14.585,-6.372 12.617,-8.363c-2.874,-2.908 -9.921,0.372 -13.633,-1.256Z" style="fill:#f1861c;"/><path d="M38.009,28.832c-6.334,-2.983 -8.667,2.898 -9.308,8.532c-0.774,6.8 -0.385,8.601 0.075,14.209c0.169,2.063 1.749,8.903 2.69,10.396c3.292,5.226 3.137,-3.942 3.368,-6.077c0.33,-3.034 0.098,-10.459 3.985,-18.153c1.748,-3.461 12.194,-6.126 10.56,-7.944c-2.388,-2.655 -8.28,0.492 -11.37,-0.963Z" style="fill:#f18c19;"/><path d="M37.088,29.634c-5.192,-2.598 -7.125,2.694 -7.669,7.747c-0.657,6.098 -0.343,7.707 0.017,12.723c0.133,1.846 1.408,7.952 2.177,9.279c2.687,4.642 2.588,-3.566 2.785,-5.48c0.279,-2.721 0.112,-9.367 3.327,-16.302c1.446,-3.118 10.032,-5.625 8.695,-7.234c-1.951,-2.351 -6.799,0.535 -9.332,-0.733Z" style="fill:#f19019;"/><path d="M36.265,30.387c-4.171,-2.27 -5.746,2.467 -6.202,6.977c-0.551,5.444 -0.304,6.876 -0.032,11.346c0.1,1.645 1.105,7.079 1.719,8.255c2.146,4.115 2.096,-3.203 2.261,-4.912c0.235,-2.429 0.125,-8.354 2.738,-14.567c1.176,-2.794 8.096,-5.106 7.026,-6.529c-1.563,-2.078 -5.476,0.538 -7.51,-0.57Z" style="fill:#f29716;"/><path d="M35.531,31.08c-3.264,-1.99 -4.52,2.225 -4.898,6.232c-0.455,4.836 -0.267,6.106 -0.073,10.073c0.072,1.459 0.838,6.277 1.314,7.318c1.668,3.64 1.659,-2.857 1.796,-4.375c0.195,-2.158 0.134,-7.417 2.211,-12.948c0.935,-2.488 6.377,-4.582 5.543,-5.839c-1.218,-1.836 -4.3,0.511 -5.893,-0.461Z" style="fill:#f29b15;"/><path d="M34.879,31.707c-2.467,-1.75 -3.442,1.977 -3.749,5.518c-0.37,4.273 -0.234,5.394 -0.107,8.898c0.047,1.29 0.603,5.544 0.959,6.463c1.247,3.211 1.274,-2.529 1.386,-3.87c0.159,-1.907 0.139,-6.553 1.744,-11.445c0.722,-2.2 4.863,-4.064 4.236,-5.173c-0.915,-1.618 -3.266,0.463 -4.469,-0.391Z" style="fill:#f39f13;"/><path d="M34.299,32.257c-1.772,-1.542 -2.501,1.731 -2.746,4.842c-0.295,3.755 -0.204,4.74 -0.135,7.82c0.026,1.133 0.401,4.874 0.653,5.681c0.88,2.825 0.937,-2.219 1.026,-3.398c0.128,-1.675 0.143,-5.758 1.335,-10.054c0.536,-1.932 3.542,-3.563 3.097,-4.538c-0.651,-1.424 -2.365,0.4 -3.23,-0.353Z" style="fill:#f3a112;"/><path d="M33.784,32.726c-1.175,-1.363 -1.691,1.491 -1.881,4.208c-0.23,3.278 -0.177,4.14 -0.157,6.832c0.008,0.99 0.228,4.261 0.39,4.969c0.567,2.476 0.647,-1.931 0.717,-2.961c0.099,-1.463 0.144,-5.03 0.979,-8.774c0.376,-1.684 2.405,-3.084 2.114,-3.939c-0.424,-1.25 -1.589,0.33 -2.162,-0.335Z" style="fill:#f3a112;"/><path d="M66.446,27.783c14.082,6.613 2.784,24.123 -1.095,32.92c-0.802,1.819 -2.712,5.736 -4.182,7.092c-1.378,1.273 -4.605,0.165 -5.508,-1.469c-6.923,-12.528 -12.709,-25.986 3.603,-31.575c4.511,-1.545 3.376,-8.756 7.182,-6.968Z" style="fill:#ee6529;"/><path d="M66.261,29.414c12.7,5.965 2.511,21.755 -0.988,29.688c-0.723,1.642 -2.445,5.173 -3.771,6.397c-1.243,1.147 -4.153,0.148 -4.967,-1.325c-6.244,-11.299 -11.462,-23.436 3.248,-28.476c4.069,-1.393 3.045,-7.896 6.478,-6.284Z" style="fill:#ee5e2d;"/><path d="M66.076,31.046c11.317,5.315 2.237,19.386 -0.88,26.456c-0.645,1.463 -2.18,4.61 -3.362,5.701c-1.107,1.022 -3.701,0.132 -4.426,-1.181c-5.563,-10.069 -10.214,-20.885 2.895,-25.376c3.626,-1.242 2.714,-7.037 5.773,-5.6Z" style="fill:#ed5532;"/><path d="M65.89,32.677c9.935,4.666 1.965,17.019 -0.772,23.225c-0.566,1.284 -1.913,4.047 -2.951,5.004c-0.972,0.898 -3.249,0.116 -3.886,-1.037c-4.883,-8.838 -8.965,-18.333 2.542,-22.276c3.183,-1.09 2.382,-6.177 5.067,-4.916Z" style="fill:#ec4e35;"/><path d="M65.705,34.308c8.553,4.017 1.691,14.651 -0.665,19.994c-0.487,1.105 -1.647,3.484 -2.54,4.308c-0.837,0.772 -2.797,0.099 -3.345,-0.893c-4.205,-7.609 -7.719,-15.782 2.188,-19.176c2.74,-0.939 2.051,-5.318 4.362,-4.233Z" style="fill:#ec4738;"/><path d="M65.52,35.94c7.17,3.367 1.417,12.282 -0.558,16.762c-0.408,0.926 -1.381,2.92 -2.129,3.611c-0.702,0.648 -2.345,0.084 -2.805,-0.748c-3.525,-6.379 -6.47,-13.232 1.835,-16.077c2.297,-0.787 1.719,-4.458 3.657,-3.548Z" style="fill:#ec423b;"/><path d="M65.335,37.571c5.787,2.719 1.144,9.915 -0.45,13.53c-0.33,0.748 -1.115,2.358 -1.719,2.916c-0.567,0.522 -1.893,0.067 -2.264,-0.604c-2.845,-5.15 -5.223,-10.681 1.481,-12.978c1.854,-0.635 1.387,-3.598 2.952,-2.864Z" style="fill:#eb3e3d;"/><path d="M65.149,39.203c4.406,2.069 0.871,7.546 -0.342,10.298c-0.251,0.569 -0.849,1.795 -1.308,2.219c-0.432,0.398 -1.441,0.052 -1.724,-0.459c-2.165,-3.92 -3.975,-8.13 1.127,-9.878c1.412,-0.484 1.057,-2.739 2.247,-2.18Z" style="fill:#eb393f;"/><path d="M64.964,40.834c3.023,1.42 0.597,5.178 -0.235,7.067c-0.172,0.391 -0.582,1.231 -0.898,1.523c-0.296,0.273 -0.988,0.035 -1.182,-0.316c-1.486,-2.689 -2.728,-5.578 0.773,-6.778c0.968,-0.332 0.725,-1.88 1.542,-1.496Z" style="fill:#ea3440;"/><path d="M64.779,42.466c1.64,0.77 0.324,2.81 -0.128,3.835c-0.093,0.212 -0.316,0.668 -0.487,0.826c-0.161,0.148 -0.536,0.019 -0.642,-0.171c-0.806,-1.46 -1.48,-3.028 0.42,-3.679c0.526,-0.18 0.393,-1.02 0.837,-0.811Z" style="fill:#ea2b43;"/><path d="M40.054,28.681c-6.251,-0.26 -7.686,10.226 -8.607,14.33c-0.764,3.359 -0.289,7.019 -0.179,10.413c0.021,2.512 -0.144,9.535 1.654,11.493c0.062,-1.504 -0.741,-3.295 -0.673,-4.924c0.269,-6.517 -0.587,-13.081 0.677,-19.431c0.489,-2.741 1.073,-4.918 2.436,-7.431c1.293,-2.384 2.354,-3.375 4.692,-4.45Z" style="fill:#ef922a;"/><path d="M58.204,28.135c6.188,0.923 5.625,11.493 5.765,15.697c0.116,3.443 0.184,2.235 -0.527,5.556c-0.526,2.456 -1.647,9.392 -3.78,10.976c0.221,-1.489 1.345,-3.097 1.585,-4.71c0.957,-6.451 1.741,-8.031 1.729,-14.506c-0.004,-2.785 0.403,-5.266 -0.998,-7.758c-0.595,-1.103 -1.048,-2.312 -1.786,-3.31c-0.21,-0.285 -1.988,-1.945 -1.988,-1.945Z" style="fill:#e93d44;"/><path d="M48.252,30.277c-3.207,4.888 -3.283,12.794 -3.146,18.574c0.131,5.906 1.242,12.355 1.004,18.12c1.363,-5.718 -0.237,-12.439 0.006,-18.329c0.145,-3.509 0.67,-7.128 0.815,-10.637c0.057,-1.378 0.385,-3.248 0.687,-4.491c0.01,-0.251 0.744,-2.856 0.634,-3.237Z" style="fill:#ec6339;"/><path d="M29.074,28.827c-1.171,1.08 -1.848,2.353 -2.439,4.124c-0.119,0.357 -0.331,1.249 -0.091,1.51c0.065,-1.564 2.11,-4.1 2.521,-4.45c0.626,-0.534 2.892,-2.298 4.179,-2.524c-1.103,-0.344 -3.138,0.387 -4.17,1.34Z" style="fill:#ec613b;"/><path d="M35.022,27.379c-1.775,0.189 -5.185,2.105 -6.31,3.893c-0.827,1.314 -1.566,3.138 -1.893,4.826c-0.271,1.399 0.161,5.788 2.373,4.059c0.997,-0.779 1.992,-3.223 2.347,-4.429c0.521,-1.776 1.83,-3.32 3.199,-4.583c0.685,-0.632 1.463,-1.26 1.506,-2.296c0.023,-0.565 -0.386,-1.559 -1.222,-1.47Z" style="fill:#f3aa25;"/><path d="M34.357,27.741c-1.499,0.169 -4.378,1.859 -5.33,3.433c-0.699,1.158 -1.325,2.762 -1.604,4.247c-0.23,1.232 0.128,5.09 1.996,3.567c0.842,-0.687 1.685,-2.838 1.986,-3.9c0.443,-1.562 1.549,-2.921 2.706,-4.034c0.579,-0.557 1.237,-1.11 1.274,-2.021c0.021,-0.497 -0.323,-1.371 -1.028,-1.292Z" style="fill:#f4b035;"/><path d="M33.768,28.107c-1.238,0.148 -3.62,1.611 -4.409,2.97c-0.579,1 -1.099,2.385 -1.331,3.667c-0.193,1.063 0.097,4.392 1.643,3.075c0.697,-0.594 1.397,-2.451 1.647,-3.368c0.368,-1.349 1.285,-2.523 2.242,-3.485c0.479,-0.482 1.024,-0.96 1.056,-1.746c0.018,-0.429 -0.265,-1.183 -0.848,-1.113Z" style="fill:#f4b746;"/><path d="M33.257,28.476c-0.996,0.126 -2.912,1.36 -3.548,2.505c-0.468,0.842 -0.888,2.008 -1.077,3.087c-0.156,0.894 0.072,3.694 1.317,2.584c0.561,-0.501 1.127,-2.065 1.329,-2.836c0.298,-1.135 1.036,-2.124 1.808,-2.935c0.385,-0.406 0.824,-0.809 0.851,-1.47c0.015,-0.361 -0.211,-0.995 -0.68,-0.935Z" style="fill:#f5bc55;"/><path d="M32.824,28.848c-0.771,0.104 -2.256,1.108 -2.749,2.038c-0.363,0.683 -0.69,1.63 -0.837,2.505c-0.123,0.726 0.049,2.997 1.014,2.094c0.435,-0.407 0.875,-1.676 1.032,-2.302c0.233,-0.922 0.805,-1.725 1.403,-2.384c0.299,-0.33 0.639,-0.657 0.661,-1.194c0.012,-0.292 -0.162,-0.806 -0.524,-0.757Z" style="fill:#f5c365;"/><path d="M32.468,29.223c-0.563,0.081 -1.648,0.854 -2.01,1.568c-0.266,0.525 -0.506,1.252 -0.615,1.924c-0.09,0.557 0.031,2.299 0.737,1.604c0.318,-0.313 0.641,-1.287 0.757,-1.767c0.171,-0.708 0.591,-1.325 1.028,-1.832c0.219,-0.253 0.467,-0.505 0.484,-0.917c0.01,-0.224 -0.117,-0.618 -0.381,-0.58Z" style="fill:#f6c871;"/><path d="M44.693,29.294c-1.495,-0.25 -2.83,0.166 -4.171,0.771c-2.304,1.037 -5.245,3.979 -5.36,6.756c-0.035,0.848 0.114,1.797 0.654,2.385c0.45,0.49 1.19,0.804 1.847,0.831c2.233,0.093 4.901,-4.03 6.252,-5.588c0.391,-0.361 1.088,-1.275 1.295,-1.738c0.42,-0.937 0.755,-3.095 -0.517,-3.417Z" style="fill:#f3a326;"/><path d="M44.321,29.597c-1.307,-0.22 -2.474,0.144 -3.648,0.673c-2.014,0.907 -4.587,3.481 -4.687,5.91c-0.031,0.741 0.1,1.571 0.572,2.086c0.394,0.429 1.041,0.703 1.616,0.727c1.952,0.081 4.286,-3.526 5.468,-4.888c0.342,-0.315 0.951,-1.115 1.132,-1.52c0.367,-0.82 0.661,-2.707 -0.453,-2.988Z" style="fill:#f3aa38;"/><path d="M43.95,29.899c-1.12,-0.188 -2.119,0.123 -3.125,0.576c-1.726,0.778 -3.929,2.982 -4.015,5.063c-0.027,0.635 0.085,1.346 0.49,1.787c0.337,0.368 0.891,0.602 1.384,0.623c1.672,0.069 3.671,-3.02 4.684,-4.187c0.293,-0.271 0.815,-0.956 0.97,-1.302c0.314,-0.703 0.566,-2.319 -0.388,-2.56Z" style="fill:#f4b048;"/><path d="M43.579,30.201c-0.932,-0.157 -1.765,0.103 -2.602,0.48c-1.437,0.647 -3.272,2.483 -3.344,4.216c-0.021,0.528 0.071,1.121 0.409,1.488c0.28,0.306 0.742,0.501 1.152,0.518c1.393,0.058 3.057,-2.515 3.9,-3.486c0.244,-0.225 0.679,-0.796 0.808,-1.085c0.262,-0.585 0.471,-1.931 -0.323,-2.131Z" style="fill:#f4b757;"/><path d="M43.208,30.503c-0.745,-0.125 -1.41,0.082 -2.079,0.384c-1.148,0.517 -2.615,1.984 -2.672,3.368c-0.017,0.422 0.057,0.896 0.326,1.189c0.225,0.244 0.593,0.401 0.921,0.415c1.113,0.046 2.443,-2.01 3.117,-2.786c0.195,-0.18 0.542,-0.636 0.645,-0.867c0.209,-0.467 0.377,-1.543 -0.258,-1.703Z" style="fill:#f5bc65;"/><path d="M42.837,30.805c-0.558,-0.094 -1.055,0.062 -1.556,0.287c-0.86,0.387 -1.957,1.485 -2,2.521c-0.013,0.317 0.042,0.671 0.244,0.89c0.168,0.183 0.444,0.301 0.689,0.311c0.833,0.034 1.829,-1.505 2.333,-2.085c0.146,-0.135 0.406,-0.477 0.483,-0.649c0.157,-0.35 0.282,-1.155 -0.193,-1.275Z" style="fill:#f5c370;"/><path d="M42.466,31.107c-0.37,-0.062 -0.701,0.041 -1.034,0.191c-0.57,0.257 -1.299,0.986 -1.328,1.674c-0.008,0.21 0.029,0.445 0.163,0.591c0.111,0.122 0.294,0.199 0.457,0.206c0.554,0.023 1.214,-0.999 1.549,-1.385c0.097,-0.089 0.27,-0.316 0.321,-0.431c0.104,-0.232 0.188,-0.767 -0.128,-0.846Z" style="fill:#f6c87e;"/><path d="M49.976,31.211c-0.66,1.082 -1.828,3.591 -1.51,5.13c0.16,0.774 1.793,2.217 2.879,0.576c2.052,-3.101 8.255,-3.784 8.509,-4.258c0.674,-1.26 -1.641,-3.058 -2.17,-3.223c-1.024,-0.317 -3.09,-0.373 -4.14,-0.34c-1.547,0.049 -2.801,0.858 -3.568,2.115Z" style="fill:#f1902d;"/><path d="M50.262,31.144c-0.6,0.984 -1.663,3.268 -1.373,4.668c0.145,0.705 1.631,2.017 2.619,0.524c1.868,-2.822 7.512,-3.443 7.743,-3.875c0.614,-1.147 -1.493,-2.783 -1.974,-2.932c-0.931,-0.289 -2.812,-0.34 -3.768,-0.31c-1.407,0.044 -2.549,0.781 -3.247,1.925Z" style="fill:#f2983c;"/><path d="M50.549,31.077c-0.541,0.886 -1.499,2.944 -1.238,4.206c0.131,0.635 1.47,1.818 2.36,0.472c1.683,-2.543 6.77,-3.102 6.978,-3.492c0.554,-1.033 -1.346,-2.507 -1.779,-2.642c-0.839,-0.261 -2.534,-0.306 -3.395,-0.279c-1.268,0.039 -2.297,0.703 -2.926,1.735Z" style="fill:#f3a14a;"/><path d="M50.835,31.009c-0.482,0.79 -1.334,2.621 -1.102,3.745c0.117,0.565 1.309,1.618 2.102,0.42c1.498,-2.264 6.026,-2.762 6.212,-3.108c0.493,-0.92 -1.198,-2.233 -1.584,-2.353c-0.747,-0.232 -2.256,-0.273 -3.023,-0.248c-1.129,0.035 -2.045,0.626 -2.605,1.544Z" style="fill:#f3aa58;"/><path d="M51.122,30.941c-0.422,0.693 -1.17,2.299 -0.966,3.284c0.102,0.495 1.147,1.419 1.842,0.369c1.314,-1.985 5.284,-2.422 5.447,-2.726c0.432,-0.807 -1.05,-1.958 -1.389,-2.063c-0.655,-0.203 -1.978,-0.239 -2.65,-0.218c-0.99,0.032 -1.793,0.55 -2.284,1.354Z" style="fill:#f4b165;"/><path d="M51.408,30.874c-0.362,0.595 -1.005,1.975 -0.83,2.822c0.088,0.426 0.986,1.219 1.584,0.317c1.129,-1.707 4.541,-2.082 4.681,-2.343c0.371,-0.693 -0.903,-1.682 -1.194,-1.772c-0.563,-0.175 -1.7,-0.206 -2.278,-0.188c-0.851,0.027 -1.541,0.472 -1.963,1.164Z" style="fill:#f4b873;"/><path d="M51.695,30.806c-0.304,0.498 -0.841,1.653 -0.694,2.361c0.073,0.356 0.825,1.02 1.324,0.265c0.944,-1.427 3.798,-1.741 3.915,-1.96c0.311,-0.58 -0.755,-1.407 -0.998,-1.482c-0.471,-0.147 -1.422,-0.172 -1.905,-0.157c-0.712,0.022 -1.289,0.395 -1.642,0.973Z" style="fill:#f5bc7e;"/><path d="M51.982,30.739c-0.245,0.4 -0.677,1.329 -0.559,1.899c0.059,0.286 0.663,0.82 1.065,0.213c0.76,-1.148 3.056,-1.401 3.15,-1.576c0.25,-0.467 -0.607,-1.132 -0.803,-1.193c-0.379,-0.118 -1.144,-0.138 -1.533,-0.126c-0.572,0.018 -1.036,0.317 -1.32,0.783Z" style="fill:#f5c388;"/><path d="M52.268,30.671c-0.185,0.303 -0.512,1.006 -0.423,1.438c0.045,0.217 0.503,0.621 0.807,0.161c0.575,-0.869 2.313,-1.06 2.384,-1.193c0.189,-0.353 -0.46,-0.857 -0.608,-0.903c-0.287,-0.089 -0.866,-0.105 -1.16,-0.095c-0.433,0.013 -0.785,0.24 -1,0.592Z" style="fill:#f5c892;"/><path d="M34.546,27.934c-1.041,-0.455 -3.119,1.248 -3.429,1.663c-0.228,0.305 -0.973,1.414 -1.118,1.83c-0.119,0.345 0.256,1.282 0.783,0.918c0.238,-0.164 0.553,-0.749 0.68,-1.042c0.188,-0.432 2.516,-2.152 2.852,-2.426c0.167,-0.137 0.354,-0.27 0.41,-0.531c0.031,-0.142 -0.02,-0.343 -0.178,-0.412Z" style="fill:#f7dfb4;"/><path d="M38.838,30.65c-0.31,0.894 1.358,1.628 2.143,1.603c0.846,-0.028 3.241,-1.673 3.868,-2.251c0.753,-0.695 2.123,-0.248 2.846,-0.219c0.542,0.023 1.506,-1.005 2.113,-1.096c0.971,-0.146 2.053,-0.036 3.001,0.367c0.653,0.293 3.669,0.257 3.711,-0.754c0.065,-1.569 -5.446,-1.155 -6.293,-0.986c-1.161,0.231 -0.913,1.293 -2.284,1.694c-0.164,0.047 -3.287,0.04 -3.588,0.031c-3.369,-0.103 -4.785,-0.501 -5.517,1.611Z" style="fill:#f7dfb4;"/><path d="M40.099,26.37c-1.354,-1.386 -5.639,-1.855 -6.817,-0.768c1.8,-0.106 4.817,0.348 6.164,1.622c0.461,0.436 0.92,0.944 0.92,0.944c1.117,0.396 5.715,0.937 6.788,0.282c1.968,-1.229 2.015,-2.363 4.988,-2.589c1.135,-0.041 3.478,0.232 4.511,0.537c0.863,0.21 0.385,1.239 1.864,1.301c0.871,0.036 2.4,1.045 2.755,0.885c1.066,-0.48 -1.126,-1.379 0.01,-1.622c2.294,-0.489 4.3,1.022 6.551,1.036c-2.206,-3.587 -9.891,-3.214 -13.515,-4.144c-3.277,-0.842 -6.086,-1.462 -8.714,0.964c-0.544,0.502 -2.465,1.631 -3.244,1.51c-0.212,-0.032 -1.464,0.234 -2.261,0.042Z" style="fill:#ec4738;"/><path d="M45.661,1.962c-5.127,0.916 -6.45,4.205 -6.13,7.043c0.368,3.264 4.161,3.811 5.752,6.168c1.756,2.599 -8.059,5.128 -5.572,10.677c2.008,4.482 8.912,2.665 9.345,0.856c1.87,-1.475 5.47,-0.436 7.53,0.263c5.734,1.946 6.796,-11.234 4.995,-15.288c-2.494,-5.613 -9.685,-10.832 -15.92,-9.719Z" style="fill:#b14233;"/><path d="M41.444,4.648c-1.242,1.499 -1.69,3.95 -1.187,5.227c1.863,4.735 13.056,6.377 15.305,1.814c1.822,-3.696 -1.478,-7.058 -4.652,-8.595c-2.499,-1.209 -7.647,-0.644 -9.466,1.554Z" style="fill:#993b26;"/><path d="M41.45,5.05c-1.135,1.371 -1.544,3.61 -1.085,4.778c1.703,4.328 11.934,5.829 13.99,1.658c1.665,-3.378 -1.351,-6.452 -4.252,-7.856c-2.284,-1.106 -6.99,-0.589 -8.653,1.42Z" style="fill:#803524;"/><path d="M41.456,5.452c-1.028,1.242 -1.399,3.271 -0.983,4.329c1.543,3.921 10.813,5.282 12.676,1.502c1.508,-3.06 -1.225,-5.845 -3.853,-7.118c-2.069,-1.001 -6.333,-0.533 -7.84,1.287Z" style="fill:#6d2e22;"/><path d="M41.462,5.854c-0.921,1.113 -1.254,2.932 -0.881,3.88c1.383,3.515 9.691,4.734 11.361,1.346c1.352,-2.742 -1.097,-5.238 -3.454,-6.379c-1.854,-0.898 -5.676,-0.478 -7.026,1.153Z" style="fill:#5d2920;"/><path d="M41.468,6.256c-0.814,0.985 -1.109,2.593 -0.779,3.431c1.223,3.108 8.57,4.186 10.046,1.191c1.196,-2.426 -0.97,-4.633 -3.054,-5.641c-1.639,-0.794 -5.019,-0.423 -6.213,1.019Z" style="fill:#4f251e;"/><path d="M41.475,6.658c-0.709,0.856 -0.964,2.254 -0.677,2.982c1.062,2.701 7.447,3.638 8.73,1.035c1.039,-2.108 -0.843,-4.026 -2.654,-4.903c-1.425,-0.69 -4.362,-0.367 -5.399,0.886Z" style="fill:#44211c;"/><path d="M41.481,7.061c-0.602,0.726 -0.819,1.913 -0.575,2.532c0.902,2.294 6.325,3.09 7.416,0.879c0.882,-1.79 -0.717,-3.42 -2.255,-4.164c-1.21,-0.586 -3.705,-0.312 -4.586,0.753Z" style="fill:#3a1e1a;"/><path d="M41.487,7.463c-0.495,0.598 -0.673,1.574 -0.473,2.083c0.742,1.888 5.204,2.542 6.101,0.723c0.726,-1.473 -0.589,-2.813 -1.855,-3.426c-0.996,-0.482 -3.048,-0.256 -3.773,0.62Z" style="fill:#321b18;"/><path d="M41.493,7.865c-0.388,0.469 -0.528,1.235 -0.371,1.634c0.582,1.481 4.082,1.994 4.786,0.568c0.569,-1.156 -0.462,-2.207 -1.455,-2.688c-0.781,-0.378 -2.391,-0.201 -2.96,0.486Z" style="fill:#2c1817;"/><path d="M41.499,8.267c-0.281,0.34 -0.383,0.896 -0.269,1.185c0.423,1.074 2.961,1.447 3.471,0.412c0.413,-0.838 -0.335,-1.601 -1.055,-1.949c-0.567,-0.274 -1.734,-0.146 -2.147,0.352Z" style="fill:#261615;"/><path d="M51.95,3.765c3.474,0.571 8.548,5.618 9.223,9.008c0.734,3.682 0.59,7.272 -0.921,10.861c-1.214,2.885 -3.324,2.58 -6.035,1.93c-4.216,-1.012 -2.473,-3.088 -0.425,-5.752c2.298,-2.985 3.976,-6.898 2.33,-10.614c-0.991,-2.234 -2.337,-3.881 -4.172,-5.433Z" style="fill:#a43e33;"/><path d="M53.986,5.176c2.924,0.523 7.006,5.238 7.427,8.414c0.458,3.451 0.175,6.819 -1.27,10.191c-1.16,2.71 -2.938,2.432 -5.211,1.832c-3.534,-0.933 -1.961,-2.887 -0.102,-5.393c2.085,-2.808 3.685,-6.485 2.454,-9.963c-0.741,-2.093 -1.809,-3.631 -3.298,-5.081Z" style="fill:#983a31;"/><path d="M55.954,6.585c2.377,0.474 5.492,4.857 5.677,7.822c0.201,3.22 -0.204,6.366 -1.562,9.522c-1.091,2.536 -2.538,2.285 -4.376,1.735c-2.857,-0.854 -1.464,-2.686 0.191,-5.035c1.856,-2.632 3.358,-6.073 2.522,-9.315c-0.502,-1.951 -1.302,-3.383 -2.452,-4.729Z" style="fill:#8d362f;"/><path d="M57.781,7.988c1.757,0.422 3.838,4.471 3.8,7.224c-0.04,2.991 -0.531,5.916 -1.739,8.858c-0.971,2.365 -2.043,2.142 -3.391,1.646c-2.097,-0.773 -0.941,-2.486 0.442,-4.68c1.551,-2.46 2.884,-5.667 2.45,-8.674c-0.262,-1.808 -0.778,-3.132 -1.562,-4.374Z" style="fill:#87342e;"/><path d="M59.479,9.717c1.185,0.367 2.332,4.013 2.109,6.505c-0.242,2.707 -0.791,5.359 -1.837,8.033c-0.841,2.149 -1.567,1.957 -2.463,1.52c-1.394,-0.68 -0.472,-2.241 0.641,-4.24c1.249,-2.24 2.401,-5.155 2.316,-7.872c-0.051,-1.635 -0.313,-2.829 -0.766,-3.946Z" style="fill:#7f312c;"/><path d="M60.812,12.588c0.603,0.284 0.889,3.237 0.544,5.266c-0.375,2.204 -0.91,4.367 -1.714,6.554c-0.647,1.757 -1.019,1.61 -1.461,1.264c-0.687,-0.537 -0.051,-1.817 0.728,-3.455c0.874,-1.836 1.757,-4.22 1.957,-6.429c0.12,-1.329 0.088,-2.297 -0.054,-3.2Z" style="fill:#7f312c;"/><path d="M55.788,15.643c0.456,-2.981 -2.098,-3.302 -2.977,1.125c-0.353,1.782 -4.376,0.931 -5.758,1.03c-3.047,0.22 -6.695,2.43 -7.099,5.081c-0.763,4.997 3.881,5.999 7.044,4.761c2.024,-0.793 4.308,-4.003 5.582,-5.691c0.252,-0.333 2.761,-3.975 3.208,-6.306Z" style="fill:#b0493c;"/><path d="M55.181,16.934c0.482,-2.482 -1.78,-2.863 -2.675,0.814c-0.36,1.48 -3.915,0.59 -5.145,0.613c-2.715,0.052 -6.016,1.747 -6.443,3.954c-0.807,4.161 3.296,5.205 6.14,4.303c1.82,-0.577 3.933,-3.171 5.109,-4.532c0.232,-0.269 2.557,-3.215 3.014,-5.152Z" style="fill:#ad5042;"/><path d="M54.437,18.466c0.475,-1.922 -1.498,-2.325 -2.36,0.514c-0.347,1.143 -3.441,0.282 -4.519,0.244c-2.379,-0.085 -5.305,1.092 -5.727,2.8c-0.795,3.223 2.776,4.229 5.285,3.654c1.606,-0.368 3.513,-2.303 4.571,-3.315c0.209,-0.2 2.308,-2.401 2.75,-3.897Z" style="fill:#ae564a;"/><path d="M53.611,19.617c0.447,-1.449 -1.241,-1.849 -2.038,0.283c-0.321,0.859 -2.962,0.056 -3.888,-0.024c-2.042,-0.176 -4.58,0.587 -4.976,1.875c-0.746,2.43 2.302,3.367 4.469,3.044c1.388,-0.207 3.064,-1.599 3.994,-2.324c0.183,-0.143 2.03,-1.73 2.439,-2.854Z" style="fill:#ac5a50;"/><path d="M52.721,20.698c0.397,-0.981 -1.012,-1.337 -1.713,0.101c-0.282,0.578 -2.484,-0.1 -3.259,-0.198c-1.709,-0.217 -3.849,0.193 -4.201,1.065c-0.664,1.644 1.877,2.434 3.699,2.312c1.166,-0.079 2.593,-0.963 3.384,-1.421c0.156,-0.09 1.73,-1.101 2.09,-1.859Z" style="fill:#ac5f57;"/><path d="M51.809,21.348c0.336,-0.616 -0.801,-0.908 -1.39,-0.01c-0.237,0.361 -2.013,-0.173 -2.639,-0.271c-1.383,-0.215 -3.124,-0.044 -3.421,0.504c-0.562,1.033 1.487,1.655 2.966,1.656c0.947,0 2.116,-0.508 2.764,-0.769c0.128,-0.052 1.417,-0.636 1.72,-1.11Z" style="fill:#a9615c;"/><path d="M50.891,21.823c0.264,-0.283 -0.612,-0.466 -1.074,-0.058c-0.185,0.164 -1.553,-0.161 -2.036,-0.232c-1.067,-0.157 -2.413,-0.142 -2.647,0.11c-0.441,0.474 1.138,0.851 2.28,0.908c0.731,0.037 1.638,-0.162 2.14,-0.262c0.1,-0.02 1.1,-0.25 1.337,-0.466Z" style="fill:#a96460;"/><path d="M52.24,19.31c-1.272,-1.697 -4.669,-2.486 -6.687,-1.773c-2.168,0.758 -4.06,3.22 -3.261,5.546c0.354,1.061 2.14,1.135 2.864,0.468c0.723,-0.668 0.818,-1.76 1.876,-2.115c1.363,-0.492 2.717,0.412 4.026,0.017c1.27,-0.366 1.572,-1.292 1.182,-2.143Z" style="fill:#b46358;"/><path d="M51.906,19.025c-1.188,-1.451 -4.348,-2.134 -6.222,-1.532c-2.013,0.638 -3.764,2.731 -3.014,4.716c0.332,0.906 1.993,0.975 2.664,0.408c0.67,-0.567 0.755,-1.498 1.738,-1.797c1.265,-0.414 2.527,0.36 3.742,0.028c1.18,-0.308 1.458,-1.096 1.092,-1.823Z" style="fill:#b7695e;"/><path d="M51.426,18.755c-1.063,-1.221 -3.885,-1.803 -5.556,-1.301c-1.796,0.532 -3.354,2.288 -2.681,3.958c0.299,0.761 1.782,0.823 2.379,0.348c0.597,-0.475 0.671,-1.257 1.547,-1.506c1.129,-0.346 2.257,0.308 3.341,0.031c1.052,-0.256 1.298,-0.918 0.97,-1.53Z" style="fill:#bd7064;"/><path d="M50.969,18.508c-0.944,-1.012 -3.445,-1.499 -4.923,-1.089c-1.589,0.436 -2.964,1.883 -2.364,3.264c0.267,0.631 1.58,0.685 2.107,0.294c0.528,-0.391 0.591,-1.037 1.367,-1.241c0.998,-0.283 1.998,0.26 2.957,0.035c0.931,-0.21 1.148,-0.756 0.856,-1.263Z" style="fill:#c1776b;"/><path d="M50.535,18.284c-0.831,-0.823 -3.026,-1.225 -4.322,-0.896c-1.393,0.348 -2.595,1.516 -2.064,2.637c0.235,0.511 1.387,0.559 1.849,0.244c0.461,-0.316 0.515,-0.839 1.195,-1.002c0.875,-0.226 1.754,0.217 2.595,0.037c0.816,-0.168 1.004,-0.609 0.747,-1.02Z" style="fill:#c67f70;"/><path d="M50.124,18.082c-0.724,-0.653 -2.63,-0.977 -3.753,-0.722c-1.207,0.271 -2.246,1.189 -1.782,2.076c0.206,0.404 1.205,0.445 1.605,0.198c0.399,-0.247 0.444,-0.66 1.034,-0.786c0.758,-0.176 1.522,0.176 2.251,0.036c0.707,-0.129 0.869,-0.477 0.645,-0.802Z" style="fill:#ca8477;"/><path d="M49.736,17.902c-0.623,-0.502 -2.255,-0.757 -3.216,-0.566c-1.032,0.202 -1.918,0.9 -1.518,1.579c0.178,0.311 1.034,0.346 1.375,0.158c0.341,-0.187 0.378,-0.503 0.882,-0.597c0.648,-0.131 1.304,0.141 1.927,0.037c0.605,-0.096 0.743,-0.362 0.55,-0.611Z" style="fill:#ce8a7d;"/><path d="M49.37,17.744c-0.526,-0.37 -1.902,-0.564 -2.71,-0.428c-0.868,0.143 -1.611,0.65 -1.271,1.149c0.151,0.228 0.872,0.258 1.158,0.122c0.287,-0.136 0.316,-0.367 0.74,-0.434c0.546,-0.093 1.099,0.109 1.623,0.036c0.509,-0.067 0.624,-0.261 0.46,-0.445Z" style="fill:#d28f80;"/><path d="M46.363,14.606c-0.652,0.545 -0.617,1.371 -0.026,2.283c0.076,0.116 -0.085,0.332 0.052,0.351c0.324,0.047 0.846,-0.082 1.17,-0.068c0.462,0.019 1.05,0.12 1.463,0.192c0.645,0.111 1.158,0.601 1.824,0.316c0.325,-0.139 0.436,-0.447 0.449,-0.771c0.033,-0.787 -0.55,-1.867 -1.301,-2.153c-0.784,-0.299 -2.954,-0.887 -3.631,-0.15Z" style="fill:#c0725b;"/><path d="M46.555,14.985c-0.554,0.464 -0.524,1.165 -0.021,1.94c0.064,0.099 -0.073,0.282 0.044,0.299c0.275,0.039 0.718,-0.07 0.993,-0.059c0.393,0.017 0.892,0.103 1.243,0.163c0.548,0.095 0.984,0.511 1.55,0.269c0.276,-0.118 0.37,-0.379 0.382,-0.655c0.027,-0.669 -0.468,-1.586 -1.106,-1.829c-0.666,-0.254 -2.509,-0.754 -3.085,-0.128Z" style="fill:#d09e81;"/><path d="M47.277,15.826c-0.329,0.275 -0.312,0.691 -0.013,1.151c0.038,0.059 -0.043,0.167 0.026,0.177c0.163,0.023 0.415,0.032 0.578,0.039c0.234,0.01 0.514,0.052 0.722,0.088c0.325,0.057 0.611,0.239 0.947,0.095c0.164,-0.07 0.22,-0.225 0.226,-0.389c0.017,-0.397 -0.277,-0.941 -0.656,-1.085c-0.395,-0.151 -1.489,-0.448 -1.83,-0.076Z" style="fill:#9c4638;"/><path d="M42.084,5.075c-0.752,0.682 -0.956,1.155 -1.307,1.929c-0.167,0.369 -0.247,1.168 -0.156,1.532c0.076,0.304 0.279,0.619 0.586,0.859c0.134,0.105 0.485,0.317 0.775,0.266c1.061,-0.184 0.024,-2.306 0.782,-3.216c0.203,-0.244 0.302,-0.547 0.55,-0.771c0.165,-0.15 0.604,-0.825 0.423,-1.005c-0.389,-0.385 -1.323,0.106 -1.653,0.406Z" style="fill:#ae7a53;"/><path d="M47.772,17.228c-1.013,-0.037 -1.488,0.161 -2.279,0.471c-0.375,0.148 -0.988,0.665 -1.176,0.99c-0.156,0.271 -0.23,0.638 -0.177,1.026c0.023,0.168 0.128,0.565 0.372,0.732c0.888,0.609 1.619,-1.638 2.795,-1.761c0.316,-0.034 0.597,-0.182 0.93,-0.17c0.223,0.008 1.007,-0.169 1.002,-0.425c-0.011,-0.547 -1.022,-0.847 -1.467,-0.863Z" style="fill:#decca6;"/><path d="M37.694,78.985c-1.135,0.055 -1.991,-2.442 -2.266,-4.829c0.446,1.603 1.277,3.326 2.331,3.275c1.054,-0.052 2.083,-1.866 2.71,-3.521c-0.543,2.427 -1.64,5.02 -2.775,5.075Z" style="fill:#ab1e4d;"/><path d="M37.694,78.985c-1.135,0.055 -1.991,-2.442 -2.266,-4.829c0.146,2.598 1.195,5.358 2.248,5.307c1.054,-0.051 2.505,-3.282 2.793,-5.553c-0.543,2.427 -1.64,5.02 -2.775,5.075Z" style="fill:#fef100;"/><path d="M35.428,74.156c0.446,1.603 1.277,3.326 2.331,3.275c1.054,-0.052 2.083,-1.866 2.71,-3.521c-1.85,4.136 -3.532,4.279 -5.041,0.246Z" style="fill:#ee381f;"/><path d="M42.999,51.866c0.791,0.119 0.989,3.216 0.44,6.894c-0.548,3.679 -1.641,6.582 -2.432,6.464c-0.792,-0.119 -0.99,-3.216 -0.441,-6.894c0.548,-3.679 1.641,-6.583 2.433,-6.464Z" style="fill:#ec1c24;"/><path d="M43.111,53.15c0.778,0.116 0.941,3.372 0.363,7.248c-0.578,3.876 -1.684,6.942 -2.461,6.826c-0.778,-0.117 -0.94,-3.373 -0.363,-7.249c0.578,-3.876 1.684,-6.942 2.461,-6.825Z" style="fill:#fefefe;"/><path d="M43.111,53.15c0.778,0.116 0.941,3.372 0.363,7.248c-0.578,3.876 -1.684,6.942 -2.461,6.826c-0.778,-0.117 -0.94,-3.373 -0.363,-7.249c-0.658,12.227 4.121,-2.583 2.461,-6.825Z" style="fill:#f0f6f9;"/><path d="M42.392,56.489c-0.103,0.038 -0.214,0.213 -0.323,0.488l0.198,1.372l-0.473,-0.456c-0.121,0.518 -0.226,1.138 -0.295,1.791c-0.173,1.64 -0.053,2.879 0.266,2.759c0.32,-0.12 0.721,-1.556 0.894,-3.195c0.173,-1.64 0.053,-2.879 -0.267,-2.759Z"/><path d="M45.287,38.568c0.667,0.1 0.889,2.538 0.633,5.903c0.021,-2.299 -0.302,-3.876 -0.921,-3.968c-0.619,-0.093 -1.388,1.32 -2.038,3.526c0.736,-3.293 1.66,-5.561 2.326,-5.461Z" style="fill:#ec1c24;"/><path d="M32.136,51.017c0.738,-0.038 1.484,2.729 1.662,6.159c0.177,3.431 -0.28,6.26 -1.018,6.299c-0.738,0.038 -1.485,-2.729 -1.662,-6.159c-0.177,-3.431 0.28,-6.26 1.018,-6.299Z" style="fill:#ec1c24;"/><path d="M32.473,52.159c0.725,-0.038 1.469,2.879 1.656,6.494c0.187,3.614 -0.252,6.593 -0.977,6.631c-0.725,0.037 -1.469,-2.88 -1.656,-6.494c-0.187,-3.615 0.252,-6.594 0.977,-6.631Z" style="fill:#fefefe;"/><path d="M32.473,52.159c0.725,-0.038 1.469,2.879 1.656,6.494c0.187,3.614 -0.252,6.593 -0.977,6.631c-0.725,0.037 -1.469,-2.88 -1.656,-6.494c1.644,11.188 3.257,-3.097 0.977,-6.631Z" style="fill:#f0f6f9;"/><path d="M32.434,55.313c-0.086,0.054 -0.154,0.233 -0.203,0.502l0.431,1.206l-0.512,-0.327c-0.015,0.491 0.003,1.072 0.061,1.676c0.144,1.516 0.479,2.616 0.746,2.448c0.267,-0.167 0.368,-1.541 0.224,-3.057c-0.144,-1.516 -0.48,-2.615 -0.747,-2.448Z"/><path d="M31.654,37.81c0.621,-0.032 1.269,2.134 1.654,5.227c-0.402,-2.086 -0.984,-3.453 -1.561,-3.423c-0.577,0.03 -1.014,1.451 -1.199,3.568c0.064,-3.117 0.485,-5.34 1.106,-5.372Z" style="fill:#ec1c24;"/><path d="M29.103,62.757c-2.921,-0.958 -6.071,-0.895 -8.877,-2.281c-0.626,-0.309 -0.204,-1.688 -0.569,-2.385c-0.109,-0.206 -0.572,-0.04 -0.577,0.206c-0.011,0.618 0.892,1.476 0.402,1.618c-0.702,0.204 -1.021,-1.049 -1.728,-1.233c-0.228,-0.059 -0.445,0.588 -0.278,0.788c0.435,0.522 1.62,0.189 1.365,0.866c-0.181,0.482 -0.915,-0.134 -1.465,0.343c-0.206,0.179 -0.241,0.706 0.001,0.792c0.679,0.242 1.29,-0.92 1.667,-0.512c0.464,0.504 -0.52,0.479 -0.831,1.136c-0.104,0.218 0.114,0.672 0.294,0.55c0.665,-0.45 0.8,-1.453 1.556,-1.364c3.064,0.358 5.859,1.628 8.926,2.072c0.165,0.024 0.274,-0.543 0.114,-0.596Z" style="fill:#f37116;"/><path d="M53.16,84.802c0.109,1.888 1.901,6.542 5.196,9.062c0.286,0.219 0.359,-0.001 0.634,-0.064c0.707,-0.162 1.274,0.679 0.769,1.171c-1.226,1.192 -1.387,1.682 -2.673,2.784c-0.547,0.468 -1.241,0.671 -1.787,0.201c-0.543,-0.469 -0.971,-1.552 -0.465,-2.06c1.186,-1.19 4.068,-0.811 2.786,-1.728c-1.69,-1.21 -4.888,-5.351 -5.236,-9.274c-0.06,-1.276 0.584,-1.469 0.776,-0.092Z" style="fill:#f0471d;"/><path d="M64.337,63.013c3.683,-0.247 9.505,-1.448 13.171,-2.231c0.818,-0.175 0.705,-1.922 1.326,-2.63c0.185,-0.21 0.681,0.125 0.618,0.414c-0.158,0.73 -1.452,1.466 -0.918,1.781c0.765,0.45 1.485,-0.925 2.363,-0.929c0.283,-0.001 0.359,0.824 0.108,1.009c-0.655,0.483 -1.948,-0.265 -1.837,0.607c0.078,0.62 1.107,0.117 1.619,0.844c0.191,0.271 0.086,0.901 -0.221,0.93c-0.861,0.079 -1.254,-1.47 -1.808,-1.103c-0.683,0.451 0.475,0.719 0.657,1.583c0.061,0.288 -0.319,0.756 -0.496,0.558c-0.653,-0.728 -0.534,-1.947 -1.443,-2.071c-3.685,-0.501 -7.811,1.633 -13.665,2.281c-0.437,0.049 0.324,-1.03 0.526,-1.043Z" style="fill:#f0471d;"/><path d="M44.711,82.948c-2.337,-0.405 -11.401,0.682 -15.418,4.005c-0.348,0.289 -0.192,0.402 -0.193,0.757c-0.004,0.914 -1.193,1.37 -1.649,0.61c-1.104,-1.844 -1.658,-2.182 -2.635,-4.075c-0.416,-0.804 -0.465,-1.714 0.265,-2.249c0.726,-0.533 2.171,-0.75 2.646,0.016c1.114,1.795 -0.104,5.295 1.315,3.912c1.989,-1.937 10.924,-4.896 15.777,-3.954c1.575,0.29 1.626,1.136 -0.108,0.978Z" style="fill:#f0471d;"/></g></svg>