<?xml version="1.0" encoding="UTF-8" standalone="no"?><!DOCTYPE svg PUBLIC "-//W3C//DTD SVG 1.1//EN" "http://www.w3.org/Graphics/SVG/1.1/DTD/svg11.dtd"><svg width="100%" height="100%" viewBox="0 0 690 735" version="1.1" xmlns="http://www.w3.org/2000/svg" xmlns:xlink="http://www.w3.org/1999/xlink" xml:space="preserve" style="fill-rule:evenodd;clip-rule:evenodd;stroke-linejoin:round;stroke-miterlimit:1.41421;"><rect id="Artboard1" x="0" y="0" width="689.066" height="734.038" style="fill:none;"/><g><g><path d="M335.027,147.612c-70.419,-6.297 -90.639,40.448 -88.403,107.731c-2.1,50.844 28.923,104.224 38.37,153.252c7.559,39.23 18.477,43.48 44.995,45.398c8.913,11 44.679,13.326 55.361,4.005c13.041,1.208 44.708,-1.447 49.141,-28.684c8.999,-38.739 45.892,-100.191 58.804,-137.138c31.83,-91.088 4.749,-141.442 -89.297,-136.434c-30.807,1.641 -68.506,-8.088 -68.971,-8.13Z" style="fill:#ef7022;"/><path d="M269.492,355.814c6.248,17.93 12.196,35.622 15.502,52.781c7.559,39.23 18.477,43.48 44.995,45.398c8.913,11 44.679,13.326 55.361,4.005c13.041,1.208 44.708,-1.447 49.141,-28.684c3.657,-15.737 11.915,-35.224 21.301,-55.292c-18.988,19.007 -31.131,20.906 -45.443,-4.442c-32.547,-66.704 -78.524,-78.432 -100.629,-9.835c-11.475,40.013 -23.74,24.578 -40.228,-3.931Z" style="fill:#ee6529;"/><path d="M277.106,368.377c5.623,16.141 13.161,30.309 16.136,45.754c6.805,35.317 16.635,39.143 40.506,40.869c8.024,9.903 40.222,11.997 49.836,3.605c11.74,1.088 40.248,-1.301 44.239,-25.821c3.291,-14.167 10.726,-31.71 19.175,-49.776c-17.093,17.111 -28.024,18.82 -40.909,-3.998c-29.299,-60.048 -70.688,-70.606 -90.588,-8.853c-10.329,36.021 -23.553,23.884 -38.395,-1.78Z" style="fill:#ee5e2d;"/><path d="M285.751,381.511c5.001,14.352 13.094,24.423 15.74,38.159c6.051,31.401 14.79,34.803 36.016,36.338c7.134,8.805 35.763,10.667 44.312,3.206c10.439,0.966 35.787,-1.159 39.335,-22.96c2.927,-12.597 9.538,-28.195 17.05,-44.259c-15.198,15.214 -24.918,16.734 -36.373,-3.555c-26.052,-53.393 -62.854,-62.78 -80.549,-7.872c-9.183,32.028 -22.334,23.763 -35.531,0.943Z" style="fill:#ed5532;"/><path d="M294.176,393.579c4.376,12.563 13.247,19.605 15.564,31.627c5.295,27.487 12.946,30.466 31.526,31.809c6.245,7.708 31.305,9.337 38.789,2.807c9.137,0.846 31.325,-1.015 34.431,-20.099c2.561,-11.026 8.349,-24.68 14.925,-38.74c-13.304,13.316 -21.812,14.647 -31.84,-3.112c-22.804,-46.737 -55.019,-54.954 -70.507,-6.892c-8.04,28.036 -21.336,22.575 -32.888,2.6Z" style="fill:#ec4e35;"/><path d="M304.914,407.065c3.754,10.774 11.087,13.368 13.074,23.679c4.542,23.572 11.103,26.126 27.036,27.279c5.356,6.609 26.847,8.007 33.266,2.405c7.836,0.727 26.864,-0.868 29.528,-17.234c2.196,-9.457 7.16,-21.166 12.799,-33.225c-11.41,11.422 -18.705,12.562 -27.307,-2.668c-19.556,-40.082 -47.182,-47.129 -60.466,-5.911c-6.893,24.043 -18.022,22.805 -27.93,5.675Z" style="fill:#ec4738;"/><path d="M316.53,418.473c3.13,8.985 8.049,9.21 9.707,17.807c3.787,19.659 9.258,21.788 22.546,22.75c4.467,5.512 22.389,6.677 27.741,2.007c6.535,0.604 22.405,-0.725 24.625,-14.374c1.833,-7.886 5.971,-17.651 10.674,-27.707c-9.514,9.525 -15.599,10.476 -22.771,-2.225c-16.31,-33.426 -39.349,-39.303 -50.426,-4.928c-5.75,20.049 -13.835,20.955 -22.096,6.67Z" style="fill:#ec423b;"/><path d="M327.147,428.518c2.507,7.195 6.011,6.414 7.337,13.3c3.034,15.744 7.416,17.449 18.058,18.218c3.578,4.416 17.932,5.349 22.218,1.608c5.233,0.485 17.942,-0.581 19.721,-11.511c1.467,-6.315 4.781,-14.136 8.549,-22.191c-7.621,7.629 -12.493,8.39 -18.237,-1.781c-13.062,-26.77 -31.514,-31.477 -40.385,-3.947c-4.605,16.058 -10.644,17.744 -17.261,6.304Z" style="fill:#eb3e3d;"/><path d="M337.622,435.649c1.883,5.406 -15.884,5.702 -14.888,10.876c3.521,18.272 62.352,23.827 65.079,7.077c1.102,-4.745 3.592,-10.621 6.422,-16.673c-5.726,5.732 -9.387,6.304 -13.702,-1.339c-9.814,-20.113 -23.679,-23.65 -30.344,-2.965c-3.46,12.065 -7.596,11.621 -12.567,3.024Z" style="fill:#eb393f;"/><path d="M338.344,164.874c-53.378,-21.322 -72.423,14.708 -77.308,49.879c-5.897,42.442 -2.477,53.928 1.868,89.379c1.598,13.042 15.442,56.689 23.464,66.464c28.065,34.194 25.965,-23.518 27.721,-36.848c2.495,-18.948 -0.095,-65.728 31.827,-112.535c14.358,-21.051 101.723,-33.576 87.859,-45.671c-20.25,-17.665 -69.389,-0.264 -95.431,-10.668Z" style="fill:#f07921;"/><path d="M331.937,169.56c-45.565,-18.936 -61.963,14.994 -66.253,47.87c-5.178,39.676 -2.291,50.324 1.309,83.301c1.325,12.133 13.019,52.582 19.846,61.554c23.882,31.385 22.272,-22.386 23.817,-34.846c2.194,-17.711 0.131,-61.28 27.575,-105.485c12.341,-19.881 87.071,-33.101 75.258,-44.132c-17.256,-16.113 -59.32,0.978 -81.552,-8.262Z" style="fill:#f07f1e;"/><path d="M326.155,174.12c-38.456,-16.868 -52.439,14.957 -56.182,45.605c-4.518,36.986 -2.114,46.842 0.813,77.452c1.077,11.263 10.822,48.693 16.562,56.924c20.08,28.8 18.909,-21.185 20.259,-32.797c1.917,-16.508 0.326,-56.995 23.685,-98.558c10.504,-18.692 73.731,-32.212 63.783,-42.278c-14.532,-14.703 -50.157,1.882 -68.92,-6.348Z" style="fill:#f1861c;"/><path d="M320.956,178.501c-32.021,-15.077 -43.813,14.65 -47.055,43.134c-3.911,34.375 -1.944,43.482 0.38,71.832c0.854,10.431 8.84,45.006 13.597,52.558c16.643,26.417 15.859,-19.931 17.03,-30.724c1.665,-15.34 0.494,-52.873 20.144,-91.772c8.837,-17.493 61.644,-30.97 53.383,-40.16c-12.069,-13.423 -41.857,2.487 -57.479,-4.868Z" style="fill:#f18c19;"/><path d="M316.299,182.558c-26.246,-13.135 -36.02,13.62 -38.77,39.164c-3.319,30.826 -1.733,38.959 0.089,64.32c0.669,9.332 7.119,40.202 11.003,46.909c13.583,23.466 13.083,-18.029 14.079,-27.706c1.413,-13.757 0.568,-47.353 16.823,-82.411c7.31,-15.766 50.713,-28.438 43.957,-36.572c-9.867,-11.883 -34.376,2.705 -47.181,-3.704Z" style="fill:#f19019;"/><path d="M312.138,186.365c-21.082,-11.48 -29.048,12.468 -31.352,35.272c-2.784,27.519 -1.535,34.757 -0.161,57.357c0.506,8.315 5.587,35.786 8.69,41.732c10.85,20.805 10.597,-16.194 11.433,-24.833c1.188,-12.281 0.628,-42.233 13.841,-73.641c5.941,-14.125 40.928,-25.813 35.52,-33.007c-7.902,-10.508 -27.685,2.72 -37.971,-2.88Z" style="fill:#f29716;"/><path d="M308.43,189.869c-16.499,-10.063 -22.853,11.245 -24.76,31.503c-2.301,24.447 -1.352,30.866 -0.369,50.921c0.361,7.378 4.233,31.735 6.642,36.995c8.429,18.405 8.388,-14.441 9.081,-22.115c0.985,-10.909 0.673,-37.496 11.177,-65.46c4.724,-12.575 32.237,-23.163 28.022,-29.517c-6.158,-9.282 -21.742,2.582 -29.793,-2.327Z" style="fill:#f29b15;"/><path d="M305.132,193.036c-12.468,-8.848 -17.398,9.992 -18.95,27.894c-1.873,21.605 -1.185,27.272 -0.543,44.987c0.236,6.518 3.048,28.027 4.85,32.669c6.301,16.236 6.44,-12.781 7.004,-19.562c0.804,-9.64 0.704,-33.128 8.82,-57.859c3.649,-11.123 24.581,-20.547 21.415,-26.15c-4.625,-8.183 -16.512,2.337 -22.596,-1.979Z" style="fill:#f39f13;"/><path d="M302.203,195.818c-8.959,-7.799 -12.644,8.749 -13.882,24.477c-1.493,18.984 -1.032,23.965 -0.682,39.535c0.129,5.728 2.024,24.636 3.297,28.718c4.451,14.282 4.739,-11.218 5.191,-17.176c0.643,-8.472 0.722,-29.113 6.749,-50.831c2.71,-9.768 17.905,-18.009 15.653,-22.939c-3.292,-7.2 -11.955,2.022 -16.326,-1.784Z" style="fill:#f3a112;"/><path d="M299.598,198.186c-5.939,-6.89 -8.551,7.538 -9.512,21.273c-1.16,16.574 -0.892,20.932 -0.789,34.539c0.04,5.007 1.151,21.543 1.97,25.121c2.865,12.516 3.27,-9.762 3.624,-14.966c0.501,-7.397 0.728,-25.432 4.95,-44.36c1.899,-8.512 12.155,-15.587 10.686,-19.914c-2.145,-6.319 -8.03,1.668 -10.929,-1.693Z" style="fill:#f3a112;"/><path d="M464.718,173.198c71.191,33.434 14.074,121.951 -5.535,166.423c-4.056,9.199 -13.71,28.998 -21.143,35.857c-6.968,6.432 -23.281,0.832 -27.845,-7.427c-34.997,-63.337 -64.248,-131.373 18.212,-159.626c22.807,-7.813 17.07,-44.265 36.311,-35.227Z" style="fill:#ee6529;"/><path d="M463.782,181.445c64.202,30.154 12.692,109.979 -4.992,150.086c-3.658,8.297 -12.364,26.152 -19.068,32.338c-6.283,5.799 -20.995,0.75 -25.11,-6.699c-31.563,-57.12 -57.941,-118.477 16.424,-143.955c20.567,-7.047 15.394,-39.92 32.746,-31.77Z" style="fill:#ee5e2d;"/><path d="M462.845,189.693c57.213,26.871 11.311,98.007 -4.448,133.749c-3.26,7.394 -11.018,23.305 -16.993,28.817c-5.599,5.168 -18.709,0.669 -22.377,-5.969c-28.126,-50.903 -51.634,-105.581 14.637,-128.286c18.327,-6.279 13.718,-35.574 29.181,-28.311Z" style="fill:#ed5532;"/><path d="M461.909,197.94c50.224,23.589 9.929,86.037 -3.906,117.412c-2.861,6.491 -9.672,20.459 -14.915,25.298c-4.917,4.537 -16.425,0.586 -19.645,-5.241c-24.691,-44.684 -45.327,-92.683 12.849,-112.616c16.089,-5.513 12.043,-31.228 25.617,-24.853Z" style="fill:#ec4e35;"/><path d="M460.972,206.187c43.236,20.307 8.549,74.065 -3.362,101.075c-2.463,5.588 -8.326,17.613 -12.84,21.779c-4.232,3.905 -14.139,0.504 -16.911,-4.512c-21.256,-38.467 -39.021,-79.787 11.061,-96.946c13.85,-4.746 10.366,-26.883 22.052,-21.396Z" style="fill:#ec4738;"/><path d="M460.036,214.435c36.247,17.025 7.165,62.093 -2.819,84.738c-2.065,4.684 -6.981,14.764 -10.765,18.257c-3.548,3.274 -11.853,0.424 -14.178,-3.782c-17.82,-32.25 -32.712,-66.891 9.273,-81.275c11.612,-3.98 8.692,-22.539 18.489,-17.938Z" style="fill:#ec423b;"/><path d="M459.099,222.683c29.26,13.742 5.784,50.122 -2.275,68.4c-1.667,3.78 -5.635,11.918 -8.69,14.738c-2.864,2.642 -9.569,0.341 -11.444,-3.053c-14.384,-26.032 -26.406,-53.995 7.486,-65.607c9.373,-3.211 7.015,-18.192 14.923,-14.478Z" style="fill:#eb3e3d;"/><path d="M458.162,230.931c22.272,10.459 4.403,38.15 -1.731,52.062c-1.269,2.878 -4.29,9.072 -6.614,11.218c-2.181,2.011 -7.284,0.26 -8.712,-2.324c-10.948,-19.814 -20.099,-41.098 5.698,-49.936c7.135,-2.445 5.34,-13.847 11.359,-11.02Z" style="fill:#eb393f;"/><path d="M457.226,239.179c15.282,7.176 3.02,26.177 -1.189,35.725c-0.87,1.975 -2.943,6.225 -4.539,7.698c-1.495,1.38 -4.997,0.178 -5.976,-1.595c-7.514,-13.596 -13.792,-28.202 3.908,-34.266c4.896,-1.678 3.665,-9.503 7.796,-7.562Z" style="fill:#ea3440;"/><path d="M456.289,247.425c8.294,3.895 1.639,14.208 -0.644,19.389c-0.473,1.071 -1.597,3.378 -2.463,4.177c-0.813,0.75 -2.713,0.098 -3.245,-0.865c-4.077,-7.379 -7.485,-15.306 2.122,-18.597c2.657,-0.91 1.989,-5.156 4.23,-4.104Z" style="fill:#ea2b43;"/><path d="M331.294,177.737c-31.598,-1.312 -38.853,51.699 -43.509,72.448c-3.865,16.976 -1.465,35.481 -0.908,52.64c0.109,12.697 -0.726,48.204 8.361,58.101c0.315,-7.603 -3.742,-16.657 -3.402,-24.894c1.36,-32.945 -2.966,-66.127 3.424,-98.23c2.472,-13.859 5.424,-24.864 12.315,-37.567c6.537,-12.054 11.903,-17.064 23.719,-22.498Z" style="fill:#ef922a;"/><path d="M423.052,174.978c31.28,4.667 28.434,58.1 29.145,79.357c0.583,17.402 0.928,11.299 -2.667,28.085c-2.658,12.415 -8.326,47.48 -19.108,55.489c1.118,-7.527 6.8,-15.655 8.011,-23.809c4.842,-32.614 8.804,-40.601 8.745,-73.336c-0.025,-14.079 2.034,-26.623 -5.049,-39.219c-3.008,-5.578 -5.299,-11.69 -9.026,-16.733c-1.065,-1.442 -10.051,-9.834 -10.051,-9.834Z" style="fill:#e93d44;"/><path d="M372.741,185.805c-16.215,24.713 -16.599,64.68 -15.908,93.903c0.667,29.857 6.283,62.458 5.08,91.602c6.891,-28.908 -1.202,-62.881 0.028,-92.659c0.733,-17.74 3.389,-36.034 4.122,-53.775c0.287,-6.969 1.944,-16.42 3.469,-22.704c0.053,-1.267 3.762,-14.441 3.209,-16.367Z" style="fill:#ec6339;"/><path d="M275.787,178.474c-5.92,5.463 -9.341,11.896 -12.328,20.853c-0.602,1.803 -1.674,6.313 -0.462,7.633c0.326,-7.908 10.665,-20.727 12.744,-22.5c3.167,-2.7 14.622,-11.616 21.129,-12.759c-5.579,-1.739 -15.867,1.96 -21.083,6.773Z" style="fill:#ec613b;"/><path d="M305.858,171.155c-8.977,0.955 -26.214,10.641 -31.9,19.681c-4.18,6.645 -7.916,15.863 -9.569,24.396c-1.37,7.077 0.813,29.263 11.994,20.523c5.041,-3.94 10.073,-16.296 11.863,-22.393c2.637,-8.978 9.254,-16.781 16.175,-23.169c3.462,-3.193 7.398,-6.368 7.615,-11.603c0.117,-2.856 -1.951,-7.884 -6.178,-7.435Z" style="fill:#f3aa25;"/><path d="M302.493,172.989c-7.576,0.852 -22.132,9.395 -26.942,17.354c-3.537,5.851 -6.702,13.962 -8.108,21.468c-1.167,6.227 0.643,25.733 10.086,18.031c4.26,-3.472 8.523,-14.347 10.042,-19.711c2.238,-7.899 7.832,-14.771 13.681,-20.398c2.924,-2.815 6.25,-5.612 6.44,-10.216c0.103,-2.512 -1.633,-6.931 -5.199,-6.528Z" style="fill:#f4b035;"/><path d="M299.518,174.837c-6.261,0.747 -18.302,8.142 -22.288,15.016c-2.931,5.054 -5.559,12.057 -6.732,18.538c-0.974,5.373 0.491,22.204 8.308,15.544c3.524,-3.004 7.062,-12.393 8.326,-17.025c1.861,-6.819 6.493,-12.758 11.335,-17.622c2.421,-2.433 5.173,-4.853 5.337,-8.826c0.09,-2.167 -1.34,-5.977 -4.286,-5.625Z" style="fill:#f4b746;"/><path d="M296.934,176.701c-5.034,0.639 -14.724,6.878 -17.939,12.666c-2.364,4.256 -4.488,10.15 -5.44,15.604c-0.791,4.521 0.361,18.676 6.654,13.062c2.837,-2.533 5.697,-10.436 6.72,-14.334c1.506,-5.74 5.24,-10.741 9.139,-14.841c1.949,-2.05 4.165,-4.088 4.303,-7.431c0.076,-1.824 -1.067,-5.026 -3.437,-4.726Z" style="fill:#f5bc55;"/><path d="M294.743,178.583c-3.895,0.525 -11.401,5.601 -13.897,10.302c-1.835,3.456 -3.487,8.241 -4.233,12.666c-0.618,3.669 0.251,15.148 5.127,10.584c2.199,-2.058 4.424,-8.474 5.221,-11.637c1.174,-4.659 4.07,-8.722 7.092,-12.053c1.512,-1.666 3.228,-3.323 3.341,-6.035c0.061,-1.479 -0.817,-4.074 -2.651,-3.827Z" style="fill:#f5c365;"/><path d="M292.943,180.48c-2.843,0.409 -8.33,4.316 -10.159,7.926c-1.345,2.654 -2.559,6.329 -3.11,9.724c-0.457,2.817 0.159,11.623 3.727,8.113c1.608,-1.583 3.241,-6.508 3.827,-8.936c0.865,-3.576 2.985,-6.698 5.197,-9.259c1.105,-1.28 2.361,-2.554 2.447,-4.636c0.047,-1.134 -0.59,-3.124 -1.929,-2.932Z" style="fill:#f6c871;"/><path d="M354.746,180.84c-7.558,-1.268 -14.303,0.836 -21.087,3.893c-11.644,5.243 -26.513,20.119 -27.093,34.157c-0.178,4.285 0.576,9.084 3.306,12.058c2.276,2.478 6.015,4.063 9.338,4.202c11.287,0.469 24.773,-20.377 31.605,-28.25c1.978,-1.824 5.498,-6.446 6.546,-8.787c2.122,-4.74 3.819,-15.647 -2.615,-17.273Z" style="fill:#f3a326;"/><path d="M352.869,182.367c-6.609,-1.108 -12.509,0.731 -18.442,3.405c-10.184,4.586 -23.19,17.597 -23.698,29.875c-0.154,3.747 0.504,7.945 2.893,10.546c1.99,2.168 5.26,3.554 8.167,3.675c9.872,0.41 21.668,-17.823 27.643,-24.707c1.729,-1.596 4.809,-5.639 5.725,-7.686c1.856,-4.146 3.34,-13.686 -2.288,-15.108Z" style="fill:#f3aa38;"/><path d="M350.993,183.894c-5.662,-0.95 -10.716,0.626 -15.799,2.916c-8.724,3.93 -19.866,15.076 -20.301,25.594c-0.131,3.21 0.433,6.806 2.479,9.034c1.705,1.858 4.506,3.045 6.997,3.149c8.456,0.351 18.56,-15.269 23.679,-21.167c1.483,-1.368 4.12,-4.83 4.905,-6.584c1.589,-3.551 2.861,-11.724 -1.96,-12.942Z" style="fill:#f4b048;"/><path d="M349.118,185.421c-4.716,-0.791 -8.923,0.521 -13.156,2.429c-7.264,3.271 -16.542,12.552 -16.903,21.311c-0.111,2.672 0.358,5.667 2.062,7.523c1.42,1.547 3.753,2.535 5.827,2.621c7.041,0.292 15.455,-12.714 19.718,-17.624c1.233,-1.139 3.429,-4.023 4.083,-5.483c1.324,-2.958 2.383,-9.763 -1.631,-10.777Z" style="fill:#f4b757;"/><path d="M347.241,186.948c-3.767,-0.633 -7.13,0.416 -10.511,1.941c-5.806,2.614 -13.218,10.03 -13.508,17.028c-0.088,2.136 0.288,4.529 1.649,6.012c1.134,1.235 2.998,2.026 4.656,2.095c5.627,0.233 12.349,-10.159 15.755,-14.084c0.986,-0.909 2.742,-3.214 3.264,-4.381c1.057,-2.362 1.903,-7.801 -1.305,-8.611Z" style="fill:#f5bc65;"/><path d="M345.366,188.475c-2.82,-0.473 -5.337,0.313 -7.87,1.452c-4.344,1.958 -9.893,7.509 -10.11,12.747c-0.066,1.599 0.215,3.39 1.235,4.499c0.848,0.926 2.244,1.517 3.484,1.569c4.212,0.175 9.245,-7.605 11.794,-10.542c0.738,-0.682 2.052,-2.406 2.443,-3.28c0.792,-1.768 1.424,-5.838 -0.976,-6.445Z" style="fill:#f5c370;"/><path d="M343.49,190.002c-1.873,-0.314 -3.544,0.206 -5.226,0.965c-2.885,1.298 -6.569,4.985 -6.714,8.464c-0.043,1.061 0.143,2.251 0.82,2.987c0.564,0.615 1.491,1.008 2.314,1.042c2.797,0.116 6.138,-5.05 7.831,-7c0.491,-0.453 1.363,-1.598 1.623,-2.178c0.525,-1.174 0.947,-3.877 -0.648,-4.28Z" style="fill:#f6c87e;"/><path d="M381.453,190.531c-3.335,5.469 -9.238,18.153 -7.63,25.933c0.81,3.914 9.062,11.206 14.551,2.912c10.376,-15.679 41.733,-19.129 43.017,-21.526c3.411,-6.373 -8.296,-15.462 -10.969,-16.292c-5.174,-1.606 -15.62,-1.888 -20.93,-1.721c-7.82,0.246 -14.162,4.339 -18.039,10.694Z" style="fill:#f1902d;"/><path d="M382.903,190.19c-3.037,4.976 -8.408,16.519 -6.944,23.599c0.735,3.562 8.246,10.199 13.241,2.65c9.441,-14.268 37.978,-17.407 39.146,-19.589c3.104,-5.799 -7.549,-14.07 -9.982,-14.825c-4.708,-1.463 -14.214,-1.719 -19.046,-1.567c-7.117,0.223 -12.887,3.949 -16.415,9.732Z" style="fill:#f2983c;"/><path d="M384.35,189.849c-2.735,4.483 -7.576,14.886 -6.256,21.265c0.663,3.21 7.431,9.19 11.931,2.388c8.509,-12.857 34.223,-15.686 35.277,-17.653c2.797,-5.224 -6.803,-12.678 -8.994,-13.358c-4.244,-1.319 -12.81,-1.548 -17.165,-1.413c-6.412,0.202 -11.613,3.558 -14.793,8.771Z" style="fill:#f3a14a;"/><path d="M385.8,189.507c-2.437,3.993 -6.746,13.252 -5.572,18.933c0.592,2.857 6.617,8.182 10.624,2.126c7.575,-11.446 30.467,-13.966 31.405,-15.716c2.491,-4.652 -6.055,-11.287 -8.007,-11.894c-3.779,-1.172 -11.404,-1.378 -15.281,-1.256c-5.709,0.179 -10.339,3.168 -13.169,7.807Z" style="fill:#f3aa58;"/><path d="M387.249,189.166c-2.136,3.5 -5.914,11.619 -4.885,16.599c0.518,2.505 5.8,7.173 9.314,1.864c6.641,-10.035 26.712,-12.244 27.534,-13.779c2.184,-4.078 -5.309,-9.897 -7.02,-10.428c-3.313,-1.028 -9.999,-1.208 -13.398,-1.102c-5.004,0.158 -9.065,2.777 -11.545,6.846Z" style="fill:#f4b165;"/><path d="M388.697,188.825c-1.835,3.008 -5.082,9.986 -4.197,14.265c0.444,2.154 4.984,6.165 8.005,1.603c5.706,-8.626 22.957,-10.524 23.663,-11.842c1.877,-3.506 -4.563,-8.506 -6.034,-8.962c-2.847,-0.885 -8.593,-1.039 -11.514,-0.948c-4.302,0.135 -7.79,2.387 -9.923,5.884Z" style="fill:#f4b873;"/><path d="M390.146,188.484c-1.535,2.515 -4.251,8.352 -3.511,11.932c0.372,1.801 4.17,5.156 6.695,1.34c4.774,-7.215 19.203,-8.803 19.793,-9.906c1.57,-2.931 -3.816,-7.113 -5.046,-7.495c-2.382,-0.74 -7.188,-0.87 -9.632,-0.792c-3.598,0.112 -6.516,1.996 -8.299,4.921Z" style="fill:#f5bc7e;"/><path d="M391.595,188.141c-1.236,2.025 -3.421,6.72 -2.826,9.6c0.3,1.449 3.355,4.148 5.387,1.078c3.841,-5.804 15.448,-7.08 15.924,-7.968c1.261,-2.359 -3.071,-5.723 -4.061,-6.03c-1.915,-0.595 -5.782,-0.7 -7.747,-0.638c-2.895,0.092 -5.242,1.606 -6.677,3.958Z" style="fill:#f5c388;"/><path d="M393.043,187.8c-0.934,1.532 -2.588,5.087 -2.138,7.266c0.227,1.097 2.54,3.141 4.078,0.817c2.907,-4.394 11.692,-5.36 12.052,-6.032c0.956,-1.785 -2.325,-4.332 -3.073,-4.565c-1.45,-0.449 -4.377,-0.528 -5.865,-0.482c-2.19,0.07 -3.967,1.216 -5.054,2.996Z" style="fill:#f5c892;"/><path d="M303.448,173.96c-5.261,-2.301 -15.764,6.312 -17.332,8.409c-1.153,1.542 -4.922,7.146 -5.652,9.25c-0.605,1.745 1.294,6.483 3.958,4.643c1.202,-0.829 2.793,-3.788 3.437,-5.27c0.949,-2.183 12.721,-10.877 14.417,-12.263c0.848,-0.693 1.79,-1.366 2.076,-2.683c0.157,-0.719 -0.101,-1.734 -0.904,-2.086Z" style="fill:#f7dfb4;"/><path d="M325.147,187.694c-1.565,4.516 6.867,8.229 10.836,8.101c4.273,-0.14 16.384,-8.454 19.554,-11.38c3.805,-3.51 10.732,-1.254 14.385,-1.103c2.74,0.115 7.614,-5.082 10.686,-5.543c4.906,-0.737 10.376,-0.181 15.171,1.853c3.299,1.485 18.547,1.303 18.758,-3.808c0.329,-7.934 -27.533,-5.842 -31.812,-4.988c-5.871,1.171 -4.615,6.54 -11.548,8.565c-0.827,0.241 -16.616,0.204 -18.138,0.157c-17.033,-0.522 -24.19,-2.532 -27.892,8.146Z" style="fill:#f7dfb4;"/><path d="M331.523,166.053c-6.846,-7.006 -28.505,-9.376 -34.462,-3.879c9.097,-0.539 24.351,1.758 31.161,8.199c2.331,2.206 4.651,4.774 4.651,4.774c5.646,2.001 28.889,4.734 34.315,1.426c9.952,-6.214 10.189,-11.948 25.219,-13.092c5.738,-0.204 17.58,1.172 22.805,2.714c4.362,1.065 1.945,6.266 9.423,6.578c4.4,0.181 12.131,5.286 13.927,4.477c5.388,-2.428 -5.694,-6.974 0.051,-8.2c11.597,-2.473 21.737,5.167 33.115,5.236c-11.15,-18.136 -50.002,-16.246 -68.324,-20.952c-16.564,-4.253 -30.765,-7.386 -44.052,4.875c-2.749,2.537 -12.46,8.248 -16.4,7.636c-1.071,-0.165 -7.398,1.183 -11.429,0.208Z" style="fill:#ec4738;"/><path d="M359.64,42.665c-25.916,4.627 -32.605,21.256 -30.988,35.602c1.86,16.504 21.034,19.267 29.08,31.182c8.873,13.14 -40.744,25.924 -28.173,53.976c10.154,22.658 45.056,13.476 47.246,4.327c9.452,-7.454 27.654,-2.201 38.068,1.334c28.987,9.835 34.357,-56.795 25.251,-77.289c-12.609,-28.377 -48.96,-54.759 -80.484,-49.132Z" style="fill:#b14233;"/><path d="M338.321,56.24c-6.277,7.582 -8.541,19.968 -6,26.426c9.418,23.935 66.004,32.24 77.375,9.169c9.208,-18.681 -7.472,-35.68 -23.521,-43.449c-12.629,-6.114 -38.658,-3.255 -47.854,7.854Z" style="fill:#993b26;"/><path d="M338.353,58.273c-5.738,6.931 -7.808,18.253 -5.485,24.156c8.608,21.879 60.333,29.47 70.727,8.381c8.417,-17.075 -6.83,-32.616 -21.5,-39.716c-11.545,-5.589 -35.337,-2.976 -43.742,7.179Z" style="fill:#803524;"/><path d="M338.383,60.306c-5.197,6.279 -7.073,16.537 -4.969,21.886c7.8,19.822 54.663,26.7 64.08,7.593c7.626,-15.471 -6.188,-29.55 -19.479,-35.984c-10.459,-5.063 -32.016,-2.696 -39.632,6.505Z" style="fill:#6d2e22;"/><path d="M338.414,62.339c-4.658,5.628 -6.339,14.822 -4.453,19.615c6.991,17.767 48.992,23.931 57.432,6.806c6.836,-13.866 -5.547,-26.484 -17.458,-32.251c-9.375,-4.537 -28.695,-2.416 -35.521,5.83Z" style="fill:#5d2920;"/><path d="M338.445,64.373c-4.118,4.976 -5.606,13.105 -3.937,17.344c6.181,15.71 43.321,21.159 50.784,6.018c6.044,-12.261 -4.905,-23.419 -15.437,-28.518c-8.29,-4.012 -25.373,-2.137 -31.41,5.156Z" style="fill:#4f251e;"/><path d="M338.477,66.405c-3.581,4.325 -4.872,11.391 -3.422,15.075c5.372,13.653 37.65,18.389 44.137,5.23c5.252,-10.656 -4.262,-20.353 -13.417,-24.785c-7.205,-3.487 -22.052,-1.856 -27.298,4.48Z" style="fill:#44211c;"/><path d="M338.508,68.439c-3.041,3.673 -4.138,9.674 -2.907,12.804c4.563,11.597 31.979,15.619 37.49,4.442c4.461,-9.052 -3.62,-17.288 -11.396,-21.051c-6.12,-2.963 -18.731,-1.578 -23.187,3.805Z" style="fill:#3a1e1a;"/><path d="M338.539,70.471c-2.502,3.023 -3.404,7.96 -2.391,10.533c3.754,9.542 26.308,12.851 30.842,3.656c3.67,-7.446 -2.979,-14.222 -9.375,-17.32c-5.036,-2.436 -15.41,-1.297 -19.076,3.131Z" style="fill:#321b18;"/><path d="M338.571,72.504c-1.963,2.371 -2.671,6.244 -1.877,8.263c2.945,7.484 20.638,10.081 24.195,2.868c2.878,-5.842 -2.337,-11.158 -7.355,-13.587c-3.949,-1.911 -12.088,-1.018 -14.963,2.456Z" style="fill:#2c1817;"/><path d="M338.602,74.538c-1.424,1.718 -1.938,4.528 -1.361,5.992c2.136,5.428 14.968,7.311 17.547,2.079c2.087,-4.236 -1.695,-8.091 -5.334,-9.852c-2.865,-1.387 -8.767,-0.739 -10.852,1.781Z" style="fill:#261615;"/><path d="M391.434,51.778c17.565,2.886 43.214,28.402 46.628,45.539c3.711,18.616 2.981,36.764 -4.658,54.909c-6.138,14.583 -16.804,13.043 -30.511,9.754c-21.313,-5.114 -12.499,-15.612 -2.146,-29.079c11.617,-15.089 20.1,-34.871 11.776,-53.655c-5.007,-11.298 -11.81,-19.62 -21.089,-27.468Z" style="fill:#a43e33;"/><path d="M401.727,58.913c14.784,2.641 35.419,26.477 37.549,42.537c2.315,17.445 0.88,34.469 -6.42,51.516c-5.867,13.701 -14.854,12.295 -26.346,9.263c-17.867,-4.715 -9.912,-14.596 -0.516,-27.264c10.54,-14.197 18.632,-32.783 12.407,-50.368c-3.745,-10.578 -9.148,-18.357 -16.674,-25.684Z" style="fill:#983a31;"/><path d="M411.677,66.034c12.016,2.396 27.762,24.556 28.697,39.543c1.016,16.279 -1.027,32.183 -7.893,48.136c-5.518,12.822 -12.831,11.553 -22.122,8.775c-14.443,-4.318 -7.403,-13.583 0.961,-25.457c9.384,-13.307 16.978,-30.7 12.755,-47.092c-2.54,-9.86 -6.584,-17.1 -12.398,-23.905Z" style="fill:#8d362f;"/><path d="M420.911,73.126c8.886,2.136 19.403,22.606 19.214,36.522c-0.204,15.118 -2.685,29.909 -8.792,44.781c-4.91,11.954 -10.33,10.828 -17.146,8.318c-10.598,-3.904 -4.757,-12.564 2.235,-23.659c7.842,-12.433 14.583,-28.649 12.385,-43.847c-1.323,-9.141 -3.933,-15.837 -7.896,-22.115Z" style="fill:#87342e;"/><path d="M429.498,81.868c5.99,1.853 11.789,20.287 10.662,32.883c-1.226,13.687 -4.003,27.096 -9.29,40.613c-4.252,10.863 -7.918,9.893 -12.45,7.682c-7.045,-3.438 -2.386,-11.328 3.243,-21.434c6.313,-11.324 12.136,-26.062 11.706,-39.798c-0.258,-8.261 -1.581,-14.299 -3.871,-19.946Z" style="fill:#7f312c;"/><path d="M436.234,96.383c3.05,1.437 4.498,16.361 2.751,26.619c-1.896,11.143 -4.602,22.081 -8.666,33.134c-3.267,8.884 -5.149,8.138 -7.384,6.392c-3.474,-2.714 -0.256,-9.185 3.682,-17.468c4.416,-9.281 8.879,-21.336 9.892,-32.501c0.608,-6.716 0.443,-11.61 -0.275,-16.176Z" style="fill:#7f312c;"/><path d="M410.836,111.827c2.305,-15.072 -10.607,-16.694 -15.049,5.686c-1.786,9.009 -22.122,4.705 -29.106,5.208c-15.405,1.111 -33.85,12.284 -35.893,25.684c-3.855,25.266 19.624,30.331 35.61,24.07c10.233,-4.007 21.782,-20.238 28.221,-28.767c1.272,-1.685 13.96,-20.098 16.217,-31.881Z" style="fill:#b0493c;"/><path d="M407.77,118.353c2.436,-12.55 -9,-14.475 -13.525,4.114c-1.821,7.483 -19.79,2.983 -26.012,3.101c-13.724,0.259 -30.41,8.831 -32.572,19.987c-4.076,21.035 16.667,26.312 31.042,21.756c9.199,-2.917 19.885,-16.034 25.829,-22.911c1.174,-1.359 12.928,-16.258 15.238,-26.047Z" style="fill:#ad5042;"/><path d="M404.007,126.097c2.402,-9.718 -7.574,-11.752 -11.931,2.6c-1.755,5.778 -17.394,1.427 -22.846,1.233c-12.023,-0.429 -26.818,5.518 -28.949,14.157c-4.02,16.289 14.032,21.377 26.718,18.47c8.118,-1.862 17.756,-11.644 23.108,-16.759c1.057,-1.009 11.667,-12.139 13.9,-19.701Z" style="fill:#ae564a;"/><path d="M399.833,131.915c2.256,-7.326 -6.275,-9.348 -10.304,1.434c-1.622,4.34 -14.974,0.279 -19.654,-0.125c-10.323,-0.89 -23.154,2.97 -25.155,9.483c-3.776,12.28 11.634,17.017 22.592,15.385c7.013,-1.045 15.487,-8.082 20.187,-11.747c0.929,-0.724 10.266,-8.745 12.334,-14.43Z" style="fill:#ac5a50;"/><path d="M395.333,137.38c2.006,-4.959 -5.114,-6.756 -8.661,0.51c-1.427,2.926 -12.557,-0.504 -16.474,-1.001c-8.641,-1.096 -19.457,0.975 -21.238,5.384c-3.358,8.314 9.488,12.307 18.699,11.689c5.895,-0.397 13.11,-4.867 17.108,-7.181c0.79,-0.457 8.743,-5.568 10.566,-9.401Z" style="fill:#ac5f57;"/><path d="M390.724,140.669c1.696,-3.117 -4.052,-4.59 -7.029,-0.051c-1.198,1.826 -10.175,-0.877 -13.343,-1.37c-6.991,-1.089 -15.79,-0.225 -17.294,2.545c-2.84,5.223 7.519,8.367 14.997,8.372c4.786,0.003 10.697,-2.568 13.971,-3.888c0.646,-0.26 7.166,-3.213 8.698,-5.608Z" style="fill:#a9615c;"/><path d="M386.083,143.068c1.332,-1.43 -3.097,-2.357 -5.429,-0.294c-0.939,0.83 -7.853,-0.813 -10.297,-1.172c-5.392,-0.791 -12.195,-0.716 -13.378,0.555c-2.231,2.397 5.748,4.303 11.524,4.594c3.697,0.186 8.282,-0.82 10.821,-1.326c0.501,-0.1 5.559,-1.266 6.759,-2.357Z" style="fill:#a96460;"/><path d="M392.9,130.364c-6.43,-8.58 -23.603,-12.568 -33.804,-8.961c-10.963,3.827 -20.524,16.278 -16.487,28.035c1.789,5.364 10.819,5.739 14.477,2.364c3.657,-3.375 4.137,-8.897 9.487,-10.691c6.889,-2.485 13.736,2.082 20.352,0.089c6.419,-1.852 7.947,-6.533 5.975,-10.836Z" style="fill:#b46358;"/><path d="M391.214,128.923c-6.006,-7.335 -21.984,-10.789 -31.455,-7.746c-10.18,3.227 -19.029,13.809 -15.238,23.843c1.68,4.578 10.077,4.927 13.466,2.062c3.39,-2.865 3.817,-7.571 8.786,-9.082c6.396,-2.097 12.776,1.819 18.921,0.141c5.962,-1.559 7.366,-5.544 5.52,-9.218Z" style="fill:#b7695e;"/><path d="M388.788,127.561c-5.377,-6.178 -19.645,-9.116 -28.093,-6.579c-9.079,2.691 -16.954,11.565 -13.549,20.007c1.51,3.85 9.005,4.162 12.024,1.761c3.019,-2.4 3.391,-6.355 7.822,-7.614c5.705,-1.748 11.408,1.556 16.888,0.16c5.318,-1.298 6.564,-4.643 4.908,-7.735Z" style="fill:#bd7064;"/><path d="M386.477,126.312c-4.776,-5.119 -17.417,-7.582 -24.891,-5.507c-8.033,2.202 -14.984,9.518 -11.948,16.502c1.346,3.187 7.984,3.463 10.651,1.486c2.668,-1.977 2.987,-5.243 6.908,-6.273c5.046,-1.431 10.104,1.314 14.953,0.173c4.706,-1.059 5.801,-3.822 4.327,-6.381Z" style="fill:#c1776b;"/><path d="M384.281,125.176c-4.202,-4.158 -15.3,-6.189 -21.849,-4.529c-7.042,1.759 -13.118,7.665 -10.435,13.33c1.189,2.585 7.013,2.827 9.347,1.233c2.333,-1.593 2.606,-4.237 6.043,-5.061c4.421,-1.144 8.866,1.093 13.117,0.183c4.125,-0.845 5.079,-3.079 3.777,-5.156Z" style="fill:#c67f70;"/><path d="M382.203,124.154c-3.66,-3.298 -13.294,-4.936 -18.973,-3.648c-6.102,1.368 -11.355,6.011 -9.01,10.493c1.041,2.044 6.095,2.254 8.114,1.003c2.02,-1.25 2.247,-3.337 5.226,-3.976c3.833,-0.889 7.697,0.891 11.382,0.187c3.576,-0.654 4.396,-2.415 3.261,-4.059Z" style="fill:#ca8477;"/><path d="M380.24,123.245c-3.147,-2.535 -11.4,-3.824 -16.256,-2.86c-5.218,1.021 -9.698,4.55 -7.673,7.985c0.898,1.568 5.225,1.747 6.95,0.798c1.724,-0.948 1.91,-2.543 4.458,-3.02c3.278,-0.664 6.592,0.711 9.744,0.187c3.059,-0.486 3.754,-1.83 2.777,-3.09Z" style="fill:#ce8a7d;"/><path d="M378.391,122.45c-2.66,-1.871 -9.616,-2.853 -13.699,-2.169c-4.39,0.724 -8.145,3.288 -6.424,5.812c0.764,1.151 4.406,1.302 5.854,0.616c1.448,-0.687 1.597,-1.853 3.74,-2.191c2.758,-0.472 5.554,0.551 8.205,0.181c2.573,-0.342 3.152,-1.322 2.324,-2.249Z" style="fill:#d28f80;"/><path d="M363.19,106.582c-3.296,2.758 -3.121,6.933 -0.13,11.542c0.383,0.59 -0.432,1.68 0.263,1.778c1.637,0.234 4.274,-0.415 5.912,-0.347c2.339,0.097 5.308,0.609 7.396,0.971c3.262,0.563 5.854,3.038 9.223,1.597c1.64,-0.7 2.202,-2.257 2.27,-3.897c0.164,-3.98 -2.78,-9.438 -6.578,-10.885c-3.966,-1.509 -14.932,-4.484 -18.356,-0.759Z" style="fill:#c0725b;"/><path d="M364.162,108.5c-2.8,2.344 -2.651,5.889 -0.11,9.806c0.325,0.501 -0.367,1.427 0.223,1.511c1.391,0.197 3.632,-0.354 5.023,-0.295c1.986,0.082 4.51,0.517 6.283,0.824c2.772,0.48 4.974,2.582 7.837,1.359c1.393,-0.596 1.87,-1.919 1.928,-3.313c0.139,-3.381 -2.362,-8.018 -5.59,-9.247c-3.369,-1.282 -12.685,-3.81 -15.594,-0.645Z" style="fill:#d09e81;"/><path d="M367.808,112.75c-1.661,1.391 -1.572,3.496 -0.064,5.82c0.192,0.297 -0.218,0.846 0.132,0.897c0.826,0.116 2.099,0.162 2.924,0.197c1.179,0.049 2.595,0.263 3.648,0.444c1.645,0.285 3.089,1.205 4.788,0.478c0.827,-0.353 1.111,-1.137 1.144,-1.965c0.084,-2.006 -1.401,-4.758 -3.316,-5.488c-2,-0.761 -7.529,-2.261 -9.256,-0.383Z" style="fill:#9c4638;"/><path d="M341.559,58.398c-3.803,3.448 -4.832,5.84 -6.606,9.757c-0.844,1.861 -1.251,5.901 -0.79,7.743c0.383,1.536 1.408,3.127 2.962,4.344c0.674,0.529 2.45,1.599 3.919,1.344c5.363,-0.93 0.119,-11.659 3.951,-16.259c1.029,-1.236 1.526,-2.764 2.779,-3.899c0.834,-0.757 3.053,-4.17 2.139,-5.078c-1.965,-1.947 -6.685,0.535 -8.354,2.048Z" style="fill:#ae7a53;"/><path d="M370.315,119.838c-5.125,-0.184 -7.526,0.814 -11.521,2.383c-1.898,0.746 -4.998,3.36 -5.948,5.003c-0.79,1.369 -1.162,3.227 -0.894,5.186c0.117,0.85 0.647,2.857 1.878,3.701c4.493,3.079 8.188,-8.28 14.133,-8.904c1.596,-0.168 3.016,-0.916 4.703,-0.856c1.124,0.041 5.089,-0.857 5.063,-2.147c-0.055,-2.77 -5.167,-4.286 -7.414,-4.366Z" style="fill:#decca6;"/><path d="M319.367,432.044c-5.738,0.279 -10.066,-12.342 -11.456,-24.411c2.254,8.102 6.456,16.813 11.783,16.555c5.329,-0.26 10.528,-9.43 13.697,-17.798c-2.744,12.27 -8.287,25.376 -14.024,25.654Z" style="fill:#ab1e4d;"/><path d="M319.367,432.044c-5.738,0.279 -10.066,-12.342 -11.456,-24.411c0.735,13.136 6.037,27.087 11.364,26.827c5.329,-0.258 12.661,-16.588 14.116,-28.07c-2.744,12.27 -8.287,25.376 -14.024,25.654Z" style="fill:#fef100;"/><path d="M307.911,407.633c2.254,8.102 6.456,16.813 11.783,16.555c5.329,-0.26 10.528,-9.43 13.697,-17.798c-9.349,20.911 -17.853,21.633 -25.48,1.243Z" style="fill:#ee381f;"/><path d="M346.181,294.947c4,0.601 5.001,16.258 2.227,34.855c-2.773,18.597 -8.297,33.275 -12.297,32.676c-4,-0.601 -5.002,-16.256 -2.228,-34.853c2.773,-18.598 8.297,-33.277 12.298,-32.678Z" style="fill:#ec1c24;"/><path d="M346.752,301.438c3.931,0.59 4.754,17.051 1.831,36.645c-2.92,19.593 -8.51,35.094 -12.44,34.504c-3.931,-0.589 -4.754,-17.05 -1.832,-36.644c2.921,-19.594 8.51,-35.094 12.441,-34.505Z" style="fill:#fefefe;"/><path d="M346.752,301.438c3.931,0.59 4.754,17.051 1.831,36.645c-2.92,19.593 -8.51,35.094 -12.44,34.504c-3.931,-0.589 -4.754,-17.05 -1.832,-36.644c-3.329,61.813 20.833,-13.056 12.441,-34.505Z" style="fill:#f0f6f9;"/><path d="M343.117,318.318c-0.52,0.195 -1.082,1.08 -1.636,2.467l1.002,6.94l-2.389,-2.308c-0.615,2.618 -1.146,5.755 -1.494,9.055c-0.873,8.288 -0.268,14.554 1.347,13.948c1.615,-0.608 3.644,-7.865 4.518,-16.155c0.872,-8.29 0.267,-14.555 -1.348,-13.947Z"/><path d="M357.753,227.722c3.367,0.506 4.491,12.832 3.196,29.844c0.106,-11.626 -1.527,-19.596 -4.654,-20.064c-3.129,-0.468 -7.016,6.676 -10.306,17.829c3.724,-16.65 8.396,-28.113 11.764,-27.609Z" style="fill:#ec1c24;"/><path d="M291.265,290.658c3.731,-0.194 7.505,13.792 8.402,31.137c0.897,17.344 -1.414,31.647 -5.145,31.841c-3.731,0.194 -7.506,-13.794 -8.403,-31.137c-0.896,-17.344 1.415,-31.647 5.146,-31.841Z" style="fill:#ec1c24;"/><path d="M292.972,296.428c3.665,-0.192 7.426,14.557 8.37,32.83c0.945,18.273 -1.274,33.332 -4.94,33.522c-3.665,0.191 -7.426,-14.557 -8.371,-32.83c-0.944,-18.273 1.275,-33.332 4.941,-33.522Z" style="fill:#fefefe;"/><path d="M292.972,296.428c3.665,-0.192 7.426,14.557 8.37,32.83c0.945,18.273 -1.274,33.332 -4.94,33.522c-3.665,0.191 -7.426,-14.557 -8.371,-32.83c8.31,56.562 16.466,-15.654 4.941,-33.522Z" style="fill:#f0f6f9;"/><path d="M292.774,312.375c-0.435,0.273 -0.782,1.177 -1.029,2.535l2.178,6.097l-2.585,-1.65c-0.078,2.483 0.016,5.42 0.306,8.47c0.728,7.665 2.424,13.225 3.774,12.378c1.351,-0.847 1.859,-7.789 1.13,-15.454c-0.728,-7.663 -2.424,-13.223 -3.774,-12.376Z"/><path d="M288.83,223.889c3.141,-0.163 6.417,10.786 8.36,26.425c-2.033,-10.544 -4.971,-17.456 -7.888,-17.304c-2.918,0.151 -5.127,7.335 -6.063,18.035c0.321,-15.757 2.45,-26.993 5.591,-27.156Z" style="fill:#ec1c24;"/><path d="M275.932,350.008c-14.765,-4.846 -30.692,-4.525 -44.875,-11.531c-3.165,-1.563 -1.029,-8.536 -2.879,-12.057c-0.55,-1.044 -2.891,-0.204 -2.913,1.038c-0.056,3.126 4.506,7.462 2.03,8.182c-3.547,1.031 -5.164,-5.302 -8.734,-6.232c-1.154,-0.301 -2.252,2.97 -1.408,3.983c2.202,2.638 8.19,0.956 6.902,4.378c-0.917,2.435 -4.625,-0.681 -7.408,1.735c-1.038,0.901 -1.215,3.567 0.009,4.002c3.43,1.222 6.519,-4.654 8.424,-2.588c2.348,2.546 -2.628,2.423 -4.2,5.74c-0.523,1.106 0.577,3.401 1.488,2.782c3.358,-2.274 4.043,-7.343 7.866,-6.896c15.491,1.812 29.617,8.232 45.121,10.475c0.834,0.12 1.389,-2.744 0.577,-3.011Z" style="fill:#f37116;"/><path d="M397.551,461.451c0.552,9.549 9.61,33.074 26.269,45.815c1.446,1.107 1.815,-0.004 3.205,-0.322c3.573,-0.821 6.442,3.433 3.888,5.917c-6.196,6.026 -7.011,8.506 -13.514,14.076c-2.765,2.366 -6.276,3.391 -9.034,1.014c-2.745,-2.367 -4.91,-7.843 -2.352,-10.411c5.995,-6.015 20.567,-4.1 14.085,-8.738c-8.543,-6.114 -24.712,-27.049 -26.471,-46.881c-0.304,-6.452 2.953,-7.427 3.924,-0.47Z" style="fill:#f0471d;"/><path d="M454.056,351.301c18.619,-1.248 48.05,-7.321 66.585,-11.28c4.134,-0.883 3.566,-9.717 6.705,-13.294c0.932,-1.063 3.439,0.63 3.123,2.095c-0.801,3.686 -7.339,7.408 -4.641,8.999c3.865,2.278 7.509,-4.674 11.944,-4.692c1.434,-0.007 1.814,4.166 0.546,5.101c-3.307,2.439 -9.847,-1.342 -9.288,3.065c0.398,3.137 5.6,0.594 8.188,4.268c0.966,1.372 0.435,4.557 -1.118,4.7c-4.351,0.403 -6.34,-7.429 -9.141,-5.577c-3.453,2.285 2.404,3.636 3.325,8.006c0.307,1.456 -1.616,3.821 -2.512,2.82c-3.297,-3.683 -2.697,-9.842 -7.294,-10.468c-18.627,-2.532 -39.485,8.256 -69.082,11.531c-2.21,0.244 1.639,-5.206 2.66,-5.274Z" style="fill:#f0471d;"/><path d="M354.837,452.083c-11.815,-2.049 -57.634,3.444 -77.941,20.245c-1.764,1.46 -0.97,2.031 -0.978,3.828c-0.019,4.617 -6.03,6.924 -8.334,3.08c-5.586,-9.322 -8.382,-11.028 -13.323,-20.598c-2.101,-4.067 -2.349,-8.668 1.339,-11.372c3.673,-2.692 10.975,-3.788 13.379,0.085c5.632,9.072 -0.528,26.767 6.647,19.776c10.052,-9.792 55.224,-24.752 79.757,-19.992c7.962,1.466 8.223,5.742 -0.546,4.948Z" style="fill:#f0471d;"/></g><text x="87.006px" y="694.512px" style="font-family:'ASUBackfire', 'ASU Backfire';font-size:230px;fill:#5a2820;">C<tspan x="152.326px 193.956px 243.636px 293.316px 332.876px 403.026px 453.166px 493.186px 525.846px " y="694.512px 694.512px 694.512px 694.512px 694.512px 694.512px 694.512px 694.512px 694.512px ">ashewbert</tspan></text></g></svg>