<?xml version="1.0" encoding="UTF-8" standalone="no"?><!DOCTYPE svg PUBLIC "-//W3C//DTD SVG 1.1//EN" "http://www.w3.org/Graphics/SVG/1.1/DTD/svg11.dtd"><svg width="100%" height="100%" viewBox="0 0 798 291" version="1.1" xmlns="http://www.w3.org/2000/svg" xmlns:xlink="http://www.w3.org/1999/xlink" xml:space="preserve" style="fill-rule:evenodd;clip-rule:evenodd;stroke-linejoin:round;stroke-miterlimit:1.41421;"><rect id="Artboard1" x="0" y="0" width="797.624" height="290.204" style="fill:none;"/><g><path d="M77.737,67.816c-38.679,-3.459 -49.785,22.217 -48.557,59.173c-1.153,27.927 15.887,57.246 21.076,84.176c4.151,21.548 10.148,23.882 24.714,24.935c4.895,6.042 24.54,7.32 30.407,2.2c7.163,0.664 24.557,-0.795 26.992,-15.755c4.942,-21.278 25.207,-55.031 32.299,-75.325c17.483,-50.032 2.608,-77.689 -49.048,-74.938c-16.921,0.901 -37.628,-4.443 -37.883,-4.466Z" style="fill:#ef7022;"/><path d="M41.741,182.174c3.431,9.848 6.699,19.566 8.515,28.991c4.151,21.548 10.148,23.882 24.714,24.935c4.895,6.042 24.54,7.32 30.407,2.2c7.163,0.664 24.557,-0.795 26.992,-15.755c2.008,-8.644 6.544,-19.347 11.699,-30.37c-10.429,10.44 -17.098,11.483 -24.959,-2.44c-17.877,-36.638 -43.131,-43.079 -55.272,-5.402c-6.303,21.978 -13.04,13.5 -22.096,-2.159Z" style="fill:#ee6529;"/><path d="M45.923,189.074c3.089,8.866 7.229,16.648 8.863,25.132c3.737,19.398 9.137,21.499 22.248,22.447c4.408,5.44 22.093,6.59 27.373,1.98c6.449,0.598 22.107,-0.714 24.299,-14.182c1.808,-7.781 5.892,-17.417 10.532,-27.34c-9.388,9.398 -15.392,10.337 -22.469,-2.196c-16.093,-32.983 -38.827,-38.782 -49.757,-4.863c-5.674,19.785 -12.937,13.118 -21.089,-0.978Z" style="fill:#ee5e2d;"/><path d="M50.671,196.288c2.747,7.883 7.192,13.415 8.646,20.96c3.323,17.247 8.123,19.116 19.782,19.959c3.918,4.836 19.643,5.859 24.339,1.761c5.734,0.53 19.657,-0.637 21.605,-12.611c1.608,-6.92 5.239,-15.487 9.365,-24.31c-8.347,8.356 -13.686,9.191 -19.978,-1.953c-14.31,-29.326 -34.523,-34.482 -44.243,-4.323c-5.044,17.591 -12.267,13.051 -19.516,0.517Z" style="fill:#ed5532;"/><path d="M55.299,202.917c2.403,6.9 7.276,10.768 8.549,17.371c2.908,15.098 7.111,16.734 17.316,17.472c3.43,4.233 17.194,5.129 21.305,1.542c5.019,0.464 17.206,-0.558 18.912,-11.04c1.406,-6.056 4.586,-13.556 8.197,-21.279c-7.307,7.315 -11.98,8.046 -17.488,-1.709c-12.526,-25.671 -30.22,-30.184 -38.727,-3.785c-4.416,15.399 -11.719,12.4 -18.064,1.428Z" style="fill:#ec4e35;"/><path d="M61.197,210.324c2.062,5.918 6.09,7.343 7.181,13.006c2.495,12.948 6.098,14.35 14.85,14.984c2.942,3.63 14.746,4.397 18.272,1.321c4.304,0.399 14.755,-0.477 16.218,-9.466c1.207,-5.195 3.933,-11.626 7.03,-18.25c-6.267,6.274 -10.274,6.9 -14.998,-1.465c-10.742,-22.015 -25.916,-25.886 -33.212,-3.247c-3.786,13.206 -9.899,12.526 -15.341,3.117Z" style="fill:#ec4738;"/><path d="M67.577,216.59c1.719,4.935 4.421,5.059 5.332,9.781c2.08,10.798 5.085,11.968 12.383,12.496c2.454,3.027 12.298,3.667 15.238,1.102c3.589,0.332 12.306,-0.398 13.525,-7.895c1.007,-4.331 3.28,-9.695 5.863,-15.219c-5.226,5.232 -8.568,5.755 -12.507,-1.222c-8.959,-18.359 -21.613,-21.587 -27.697,-2.707c-3.159,11.013 -7.599,11.511 -12.137,3.664Z" style="fill:#ec423b;"/><path d="M73.409,222.108c1.376,3.952 3.301,3.523 4.03,7.305c1.666,8.647 4.073,9.584 9.918,10.007c1.965,2.425 9.849,2.937 12.203,0.882c2.875,0.267 9.855,-0.318 10.833,-6.322c0.805,-3.469 2.626,-7.764 4.695,-12.189c-4.186,4.191 -6.862,4.609 -10.017,-0.978c-7.174,-14.704 -17.309,-17.289 -22.182,-2.168c-2.529,8.82 -5.846,9.746 -9.48,3.463Z" style="fill:#eb3e3d;"/><path d="M79.162,226.024c1.034,2.97 -8.725,3.132 -8.177,5.974c1.934,10.036 34.247,13.088 35.745,3.888c0.605,-2.607 1.973,-5.834 3.527,-9.159c-3.144,3.149 -5.155,3.463 -7.526,-0.735c-5.39,-11.047 -13.005,-12.99 -16.666,-1.629c-1.901,6.627 -4.173,6.384 -6.903,1.661Z" style="fill:#eb393f;"/><path d="M79.559,77.298c-29.319,-11.712 -39.78,8.078 -42.463,27.396c-3.239,23.312 -1.36,29.621 1.026,49.093c0.878,7.164 8.482,31.137 12.888,36.506c15.415,18.782 14.262,-12.917 15.226,-20.239c1.371,-10.408 -0.052,-36.102 17.482,-61.812c7.886,-11.562 55.872,-18.441 48.258,-25.085c-11.123,-9.703 -38.113,-0.145 -52.417,-5.859Z" style="fill:#f07921;"/><path d="M76.04,79.872c-25.028,-10.402 -34.035,8.235 -36.391,26.293c-2.844,21.792 -1.258,27.641 0.719,45.754c0.728,6.664 7.151,28.881 10.901,33.809c13.117,17.239 12.233,-12.296 13.081,-19.139c1.206,-9.728 0.073,-33.659 15.146,-57.939c6.779,-10.92 47.826,-18.182 41.337,-24.241c-9.478,-8.85 -32.582,0.538 -44.793,-4.537Z" style="fill:#f07f1e;"/><path d="M72.864,82.376c-21.123,-9.265 -28.803,8.215 -30.859,25.049c-2.482,20.315 -1.161,25.729 0.446,42.542c0.592,6.186 5.945,26.745 9.097,31.266c11.03,15.819 10.387,-11.636 11.128,-18.014c1.053,-9.067 0.179,-31.306 13.009,-54.134c5.77,-10.267 40.498,-17.693 35.034,-23.222c-7.982,-8.076 -27.549,1.033 -37.855,-3.487Z" style="fill:#f1861c;"/><path d="M70.008,84.783c-17.588,-8.282 -24.065,8.046 -25.845,23.692c-2.149,18.88 -1.069,23.882 0.208,39.454c0.469,5.73 4.856,24.72 7.468,28.868c9.142,14.51 8.712,-10.947 9.355,-16.875c0.914,-8.426 0.271,-29.041 11.064,-50.407c4.854,-9.609 33.858,-17.011 29.321,-22.059c-6.629,-7.373 -22.99,1.366 -31.571,-2.673Z" style="fill:#f18c19;"/><path d="M67.45,87.011c-14.416,-7.215 -19.784,7.481 -21.295,21.511c-1.823,16.932 -0.951,21.399 0.049,35.329c0.367,5.125 3.91,22.081 6.044,25.765c7.461,12.889 7.186,-9.903 7.733,-15.218c0.776,-7.556 0.312,-26.009 9.24,-45.265c4.015,-8.66 27.855,-15.62 24.144,-20.088c-5.419,-6.527 -18.881,1.486 -25.915,-2.034Z" style="fill:#f19019;"/><path d="M65.165,89.102c-11.58,-6.306 -15.955,6.848 -17.221,19.373c-1.529,15.116 -0.843,19.091 -0.089,31.505c0.279,4.567 3.069,19.655 4.774,22.921c5.959,11.428 5.821,-8.894 6.28,-13.64c0.652,-6.745 0.345,-23.196 7.602,-40.448c3.263,-7.758 22.48,-14.178 19.51,-18.13c-4.34,-5.771 -15.207,1.495 -20.856,-1.581Z" style="fill:#f29716;"/><path d="M63.128,91.026c-9.062,-5.527 -12.552,6.177 -13.6,17.304c-1.264,13.428 -0.743,16.954 -0.202,27.969c0.198,4.053 2.325,17.431 3.648,20.32c4.63,10.109 4.607,-7.932 4.988,-12.147c0.54,-5.992 0.369,-20.595 6.139,-35.955c2.595,-6.907 17.706,-12.722 15.391,-16.212c-3.382,-5.099 -11.942,1.418 -16.364,-1.279Z" style="fill:#f29b15;"/><path d="M61.317,92.766c-6.849,-4.86 -9.557,5.488 -10.409,15.321c-1.029,11.867 -0.651,14.98 -0.298,24.71c0.13,3.58 1.674,15.394 2.664,17.944c3.46,8.918 3.537,-7.02 3.847,-10.745c0.441,-5.295 0.386,-18.196 4.844,-31.78c2.004,-6.109 13.501,-11.286 11.763,-14.363c-2.541,-4.495 -9.07,1.283 -12.411,-1.087Z" style="fill:#f39f13;"/><path d="M59.708,94.294c-4.921,-4.284 -6.945,4.805 -7.625,13.444c-0.82,10.427 -0.567,13.163 -0.375,21.716c0.071,3.145 1.112,13.531 1.811,15.773c2.445,7.845 2.603,-6.161 2.851,-9.434c0.354,-4.653 0.397,-15.991 3.707,-27.92c1.489,-5.365 9.835,-9.891 8.598,-12.599c-1.808,-3.955 -6.566,1.11 -8.967,-0.98Z" style="fill:#f3a112;"/><path d="M58.277,95.594c-3.262,-3.784 -4.697,4.141 -5.225,11.685c-0.637,9.104 -0.49,11.497 -0.433,18.971c0.022,2.75 0.632,11.833 1.082,13.798c1.573,6.875 1.796,-5.362 1.99,-8.22c0.276,-4.063 0.4,-13.969 2.719,-24.365c1.043,-4.676 6.677,-8.562 5.87,-10.938c-1.178,-3.471 -4.411,0.916 -6.003,-0.931Z" style="fill:#f3a112;"/><path d="M148.971,81.869c39.103,18.365 7.731,66.984 -3.04,91.411c-2.227,5.052 -7.53,15.927 -11.613,19.695c-3.827,3.533 -12.788,0.457 -15.294,-4.08c-19.223,-34.789 -35.289,-72.158 10.003,-87.677c12.527,-4.291 9.376,-24.312 19.944,-19.349Z" style="fill:#ee6529;"/><path d="M148.457,86.4c35.264,16.562 6.972,60.407 -2.742,82.436c-2.009,4.558 -6.791,14.365 -10.473,17.762c-3.451,3.185 -11.532,0.412 -13.792,-3.679c-17.336,-31.374 -31.825,-65.075 9.021,-79.07c11.297,-3.87 8.455,-21.926 17.986,-17.449Z" style="fill:#ee5e2d;"/><path d="M147.943,90.93c31.425,14.759 6.213,53.832 -2.444,73.463c-1.79,4.061 -6.052,12.801 -9.333,15.829c-3.076,2.838 -10.277,0.367 -12.291,-3.279c-15.448,-27.959 -28.361,-57.992 8.04,-70.463c10.066,-3.449 7.535,-19.54 16.028,-15.55Z" style="fill:#ed5532;"/><path d="M147.428,95.459c27.587,12.957 5.454,47.257 -2.145,64.491c-1.571,3.565 -5.312,11.237 -8.192,13.895c-2.701,2.492 -9.022,0.322 -10.791,-2.879c-13.561,-24.543 -24.896,-50.907 7.058,-61.856c8.837,-3.027 6.615,-17.152 14.07,-13.651Z" style="fill:#ec4e35;"/><path d="M146.914,99.99c23.748,11.153 4.695,40.68 -1.847,55.516c-1.353,3.069 -4.573,9.674 -7.052,11.962c-2.325,2.145 -7.767,0.277 -9.289,-2.478c-11.675,-21.128 -21.433,-43.824 6.076,-53.249c7.607,-2.606 5.693,-14.766 12.112,-11.751Z" style="fill:#ec4738;"/><path d="M146.399,104.52c19.91,9.351 3.936,34.105 -1.548,46.543c-1.134,2.573 -3.834,8.11 -5.913,10.028c-1.948,1.798 -6.51,0.233 -7.787,-2.077c-9.788,-17.714 -17.968,-36.741 5.094,-44.642c6.378,-2.186 4.773,-12.379 10.154,-9.852Z" style="fill:#ec423b;"/><path d="M145.885,109.05c16.071,7.548 3.177,27.53 -1.249,37.57c-0.916,2.076 -3.096,6.546 -4.774,8.094c-1.573,1.452 -5.255,0.188 -6.286,-1.676c-7.9,-14.299 -14.503,-29.658 4.112,-36.036c5.148,-1.763 3.854,-9.992 8.197,-7.952Z" style="fill:#eb3e3d;"/><path d="M145.371,113.58c12.232,5.745 2.418,20.955 -0.951,28.596c-0.698,1.581 -2.356,4.983 -3.633,6.162c-1.198,1.104 -4.001,0.142 -4.785,-1.277c-6.014,-10.883 -11.04,-22.573 3.129,-27.428c3.919,-1.343 2.933,-7.605 6.24,-6.053Z" style="fill:#eb393f;"/><path d="M144.856,118.11c8.394,3.942 1.659,14.379 -0.653,19.623c-0.478,1.085 -1.616,3.419 -2.493,4.228c-0.821,0.758 -2.744,0.098 -3.283,-0.876c-4.126,-7.468 -7.575,-15.49 2.147,-18.821c2.69,-0.922 2.013,-5.22 4.282,-4.154Z" style="fill:#ea3440;"/><path d="M144.342,122.64c4.555,2.139 0.9,7.804 -0.354,10.65c-0.26,0.588 -0.877,1.855 -1.353,2.294c-0.446,0.412 -1.49,0.053 -1.782,-0.475c-2.239,-4.053 -4.112,-8.407 1.165,-10.215c1.459,-0.5 1.093,-2.832 2.324,-2.254Z" style="fill:#ea2b43;"/><path d="M75.686,84.362c-17.356,-0.72 -21.34,28.397 -23.897,39.794c-2.124,9.324 -0.805,19.488 -0.499,28.913c0.059,6.974 -0.399,26.477 4.592,31.913c0.173,-4.176 -2.055,-9.149 -1.869,-13.674c0.748,-18.095 -1.629,-36.321 1.881,-53.954c1.358,-7.612 2.979,-13.657 6.764,-20.634c3.591,-6.621 6.538,-9.372 13.028,-12.358Z" style="fill:#ef922a;"/><path d="M126.086,82.847c17.181,2.564 15.617,31.913 16.008,43.588c0.32,9.559 0.51,6.206 -1.465,15.426c-1.46,6.819 -4.573,26.08 -10.495,30.478c0.614,-4.134 3.735,-8.598 4.4,-13.077c2.66,-17.914 4.836,-22.301 4.803,-40.281c-0.013,-7.733 1.118,-14.623 -2.773,-21.542c-1.652,-3.063 -2.91,-6.42 -4.958,-9.19c-0.585,-0.792 -5.52,-5.402 -5.52,-5.402Z" style="fill:#e93d44;"/><path d="M98.452,88.794c-8.906,13.574 -9.118,35.527 -8.738,51.578c0.366,16.399 3.451,34.306 2.79,50.313c3.785,-15.878 -0.66,-34.538 0.016,-50.894c0.403,-9.744 1.861,-19.792 2.264,-29.537c0.158,-3.827 1.067,-9.019 1.905,-12.47c0.029,-0.696 2.067,-7.932 1.763,-8.99Z" style="fill:#ec6339;"/><path d="M45.198,84.768c-3.251,3 -5.13,6.534 -6.771,11.453c-0.33,0.99 -0.919,3.468 -0.254,4.193c0.179,-4.344 5.858,-11.385 7,-12.359c1.74,-1.482 8.032,-6.38 11.605,-7.007c-3.064,-0.956 -8.715,1.076 -11.58,3.72Z" style="fill:#ec613b;"/><path d="M61.715,80.748c-4.93,0.524 -14.398,5.844 -17.521,10.809c-2.296,3.651 -4.348,8.713 -5.256,13.4c-0.753,3.887 0.447,16.073 6.588,11.273c2.769,-2.164 5.532,-8.951 6.516,-12.3c1.448,-4.931 5.082,-9.217 8.884,-12.725c1.902,-1.755 4.063,-3.498 4.183,-6.374c0.064,-1.568 -1.072,-4.33 -3.394,-4.083Z" style="fill:#f3aa25;"/><path d="M59.867,81.755c-4.161,0.468 -12.156,5.16 -14.798,9.532c-1.943,3.213 -3.682,7.668 -4.454,11.791c-0.641,3.42 0.353,14.135 5.54,9.904c2.34,-1.907 4.681,-7.88 5.516,-10.826c1.229,-4.339 4.302,-8.114 7.514,-11.204c1.607,-1.546 3.433,-3.083 3.538,-5.612c0.056,-1.379 -0.897,-3.807 -2.856,-3.585Z" style="fill:#f4b035;"/><path d="M58.233,82.77c-3.439,0.41 -10.053,4.472 -12.242,8.247c-1.61,2.776 -3.054,6.623 -3.698,10.183c-0.535,2.951 0.27,12.196 4.563,8.537c1.936,-1.649 3.879,-6.806 4.574,-9.351c1.022,-3.745 3.566,-7.007 6.226,-9.679c1.33,-1.336 2.841,-2.665 2.931,-4.848c0.05,-1.19 -0.736,-3.283 -2.354,-3.089Z" style="fill:#f4b746;"/><path d="M56.814,83.794c-2.765,0.351 -8.087,3.777 -9.853,6.957c-1.299,2.337 -2.465,5.575 -2.989,8.57c-0.434,2.484 0.199,10.258 3.655,7.175c1.558,-1.391 3.129,-5.732 3.691,-7.873c0.827,-3.153 2.878,-5.9 5.02,-8.152c1.071,-1.126 2.288,-2.245 2.363,-4.082c0.042,-1.001 -0.586,-2.76 -1.887,-2.595Z" style="fill:#f5bc55;"/><path d="M55.61,84.827c-2.139,0.289 -6.262,3.077 -7.633,5.659c-1.008,1.898 -1.915,4.526 -2.325,6.957c-0.339,2.015 0.138,8.32 2.816,5.813c1.208,-1.13 2.43,-4.654 2.868,-6.391c0.645,-2.559 2.236,-4.791 3.895,-6.621c0.831,-0.915 1.774,-1.825 1.835,-3.314c0.034,-0.813 -0.449,-2.238 -1.456,-2.103Z" style="fill:#f5c365;"/><path d="M54.621,85.87c-1.561,0.224 -4.575,2.37 -5.58,4.353c-0.738,1.457 -1.405,3.476 -1.707,5.341c-0.251,1.547 0.087,6.384 2.046,4.456c0.884,-0.869 1.781,-3.575 2.103,-4.908c0.475,-1.965 1.639,-3.679 2.854,-5.086c0.607,-0.703 1.297,-1.403 1.344,-2.546c0.026,-0.623 -0.324,-1.716 -1.06,-1.61Z" style="fill:#f6c871;"/><path d="M88.568,86.067c-4.152,-0.696 -7.857,0.459 -11.583,2.138c-6.395,2.88 -14.562,11.051 -14.881,18.762c-0.098,2.353 0.317,4.989 1.816,6.623c1.25,1.361 3.304,2.231 5.129,2.307c6.199,0.258 13.607,-11.192 17.359,-15.516c1.087,-1.002 3.021,-3.541 3.596,-4.827c1.165,-2.603 2.097,-8.594 -1.436,-9.487Z" style="fill:#f3a326;"/><path d="M87.537,86.906c-3.63,-0.609 -6.871,0.402 -10.13,1.87c-5.594,2.519 -12.737,9.666 -13.016,16.409c-0.085,2.059 0.277,4.364 1.589,5.793c1.093,1.191 2.889,1.952 4.486,2.019c5.422,0.225 11.901,-9.79 15.183,-13.571c0.95,-0.877 2.641,-3.097 3.145,-4.222c1.019,-2.277 1.834,-7.517 -1.257,-8.298Z" style="fill:#f3aa38;"/><path d="M86.507,87.745c-3.111,-0.522 -5.886,0.344 -8.678,1.601c-4.792,2.159 -10.912,8.281 -11.151,14.058c-0.072,1.763 0.238,3.738 1.361,4.962c0.937,1.021 2.476,1.673 3.843,1.73c4.645,0.192 10.195,-8.387 13.007,-11.626c0.814,-0.752 2.263,-2.654 2.694,-3.617c0.873,-1.951 1.571,-6.439 -1.076,-7.108Z" style="fill:#f4b048;"/><path d="M85.476,88.583c-2.59,-0.434 -4.901,0.287 -7.226,1.334c-3.99,1.797 -9.086,6.895 -9.284,11.706c-0.061,1.468 0.197,3.113 1.133,4.132c0.78,0.849 2.061,1.392 3.2,1.44c3.868,0.16 8.489,-6.984 10.83,-9.681c0.678,-0.626 1.884,-2.209 2.244,-3.011c0.727,-1.625 1.308,-5.363 -0.897,-5.92Z" style="fill:#f4b757;"/><path d="M84.446,89.422c-2.07,-0.347 -3.917,0.229 -5.774,1.066c-3.189,1.436 -7.26,5.509 -7.419,9.353c-0.049,1.173 0.158,2.488 0.906,3.302c0.622,0.678 1.646,1.113 2.557,1.151c3.09,0.128 6.783,-5.58 8.653,-7.736c0.542,-0.499 1.506,-1.765 1.793,-2.406c0.581,-1.298 1.045,-4.285 -0.716,-4.73Z" style="fill:#f5bc65;"/><path d="M83.415,90.261c-1.548,-0.26 -2.931,0.171 -4.322,0.797c-2.386,1.076 -5.434,4.124 -5.553,7.002c-0.036,0.878 0.118,1.862 0.678,2.471c0.466,0.508 1.233,0.833 1.914,0.862c2.313,0.096 5.078,-4.178 6.478,-5.79c0.405,-0.375 1.127,-1.322 1.341,-1.802c0.436,-0.971 0.783,-3.207 -0.536,-3.54Z" style="fill:#f5c370;"/><path d="M82.385,91.099c-1.029,-0.172 -1.946,0.114 -2.87,0.53c-1.585,0.714 -3.609,2.738 -3.688,4.649c-0.024,0.583 0.079,1.237 0.45,1.641c0.31,0.338 0.819,0.554 1.271,0.572c1.537,0.064 3.372,-2.773 4.302,-3.845c0.269,-0.248 0.748,-0.877 0.891,-1.196c0.289,-0.645 0.52,-2.129 -0.356,-2.351Z" style="fill:#f6c87e;"/><path d="M103.237,91.39c-1.832,3.004 -5.074,9.971 -4.191,14.244c0.445,2.15 4.978,6.155 7.992,1.599c5.699,-8.611 22.923,-10.506 23.628,-11.823c1.873,-3.5 -4.557,-8.493 -6.025,-8.949c-2.842,-0.882 -8.58,-1.037 -11.496,-0.945c-4.295,0.135 -7.779,2.383 -9.908,5.874Z" style="fill:#f1902d;"/><path d="M104.033,91.203c-1.668,2.733 -4.618,9.073 -3.814,12.962c0.404,1.956 4.53,5.602 7.273,1.455c5.186,-7.837 20.86,-9.561 21.501,-10.759c1.705,-3.185 -4.146,-7.729 -5.482,-8.143c-2.586,-0.804 -7.808,-0.944 -10.462,-0.861c-3.908,0.123 -7.078,2.169 -9.016,5.346Z" style="fill:#f2983c;"/><path d="M104.828,91.015c-1.502,2.463 -4.161,8.177 -3.436,11.681c0.364,1.763 4.081,5.047 6.553,1.311c4.674,-7.062 18.798,-8.616 19.377,-9.696c1.536,-2.87 -3.737,-6.963 -4.941,-7.337c-2.331,-0.724 -7.036,-0.851 -9.428,-0.776c-3.521,0.111 -6.378,1.954 -8.125,4.817Z" style="fill:#f3a14a;"/><path d="M105.624,90.827c-1.338,2.194 -3.705,7.279 -3.06,10.4c0.325,1.569 3.634,4.494 5.835,1.167c4.161,-6.287 16.735,-7.67 17.25,-8.632c1.368,-2.555 -3.326,-6.199 -4.398,-6.533c-2.075,-0.643 -6.264,-0.757 -8.393,-0.69c-3.136,0.099 -5.679,1.74 -7.234,4.288Z" style="fill:#f3aa58;"/><path d="M106.42,90.64c-1.173,1.922 -3.248,6.382 -2.683,9.117c0.285,1.377 3.186,3.94 5.116,1.024c3.648,-5.512 14.672,-6.725 15.124,-7.568c1.199,-2.24 -2.916,-5.436 -3.856,-5.728c-1.82,-0.564 -5.492,-0.663 -7.359,-0.605c-2.749,0.087 -4.979,1.525 -6.342,3.76Z" style="fill:#f4b165;"/><path d="M107.216,90.453c-1.008,1.652 -2.792,5.485 -2.306,7.835c0.245,1.183 2.738,3.386 4.397,0.88c3.135,-4.737 12.61,-5.78 12.998,-6.504c1.031,-1.926 -2.507,-4.672 -3.315,-4.922c-1.563,-0.486 -4.72,-0.571 -6.324,-0.521c-2.363,0.074 -4.279,1.311 -5.45,3.232Z" style="fill:#f4b873;"/><path d="M108.012,90.265c-0.844,1.382 -2.336,4.588 -1.929,6.554c0.205,0.99 2.291,2.833 3.678,0.736c2.622,-3.962 10.547,-4.834 10.871,-5.44c0.863,-1.611 -2.096,-3.908 -2.771,-4.117c-1.309,-0.407 -3.949,-0.478 -5.291,-0.435c-1.976,0.061 -3.579,1.096 -4.558,2.702Z" style="fill:#f5bc7e;"/><path d="M108.808,90.077c-0.679,1.113 -1.879,3.691 -1.552,5.273c0.164,0.796 1.842,2.279 2.958,0.592c2.11,-3.187 8.485,-3.888 8.746,-4.376c0.694,-1.296 -1.686,-3.144 -2.23,-3.313c-1.052,-0.326 -3.176,-0.384 -4.255,-0.35c-1.59,0.051 -2.88,0.882 -3.667,2.174Z" style="fill:#f5c388;"/><path d="M109.603,89.89c-0.513,0.842 -1.421,2.794 -1.174,3.991c0.124,0.603 1.395,1.725 2.239,0.448c1.597,-2.413 6.422,-2.943 6.62,-3.312c0.525,-0.981 -1.277,-2.38 -1.687,-2.508c-0.797,-0.247 -2.405,-0.29 -3.222,-0.264c-1.203,0.038 -2.179,0.667 -2.776,1.645Z" style="fill:#f5c892;"/><path d="M60.392,82.288c-2.89,-1.263 -8.659,3.467 -9.52,4.619c-0.633,0.847 -2.704,3.925 -3.105,5.081c-0.332,0.958 0.711,3.56 2.175,2.55c0.659,-0.456 1.533,-2.081 1.887,-2.895c0.521,-1.199 6.987,-5.974 7.919,-6.736c0.465,-0.38 0.983,-0.749 1.14,-1.473c0.086,-0.395 -0.055,-0.953 -0.496,-1.146Z" style="fill:#f7dfb4;"/><path d="M72.31,89.832c-0.859,2.48 3.772,4.52 5.952,4.449c2.347,-0.076 8.999,-4.643 10.74,-6.25c2.09,-1.928 5.895,-0.689 7.901,-0.606c1.505,0.063 4.182,-2.792 5.87,-3.045c2.694,-0.404 5.699,-0.099 8.333,1.018c1.811,0.816 10.187,0.716 10.303,-2.091c0.18,-4.358 -15.123,-3.209 -17.473,-2.74c-3.225,0.643 -2.535,3.592 -6.343,4.704c-0.454,0.132 -9.127,0.112 -9.963,0.086c-9.355,-0.286 -13.286,-1.39 -15.32,4.475Z" style="fill:#f7dfb4;"/><path d="M75.812,77.945c-3.76,-3.848 -15.657,-5.15 -18.929,-2.131c4.997,-0.295 13.376,0.966 17.116,4.504c1.281,1.211 2.554,2.622 2.554,2.622c3.102,1.099 15.869,2.6 18.849,0.783c5.466,-3.413 5.596,-6.562 13.852,-7.191c3.151,-0.112 9.656,0.644 12.526,1.491c2.396,0.585 1.068,3.442 5.175,3.613c2.417,0.1 6.663,2.904 7.65,2.459c2.959,-1.333 -3.127,-3.83 0.028,-4.504c6.37,-1.358 11.939,2.838 18.188,2.876c-6.124,-9.961 -27.464,-8.923 -37.527,-11.508c-9.098,-2.336 -16.898,-4.057 -24.196,2.678c-1.51,1.393 -6.844,4.53 -9.009,4.194c-0.588,-0.091 -4.063,0.65 -6.277,0.114Z" style="fill:#ec4738;"/><path d="M91.256,10.173c-14.235,2.541 -17.909,11.675 -17.021,19.554c1.022,9.065 11.553,10.583 15.973,17.128c4.874,7.217 -22.379,14.239 -15.475,29.647c5.578,12.445 24.748,7.402 25.951,2.376c5.191,-4.094 15.189,-1.208 20.909,0.733c15.922,5.402 18.871,-31.196 13.87,-42.452c-6.926,-15.586 -26.892,-30.077 -44.207,-26.986Z" style="fill:#b14233;"/><path d="M79.546,17.629c-3.447,4.164 -4.691,10.968 -3.296,14.515c5.173,13.146 36.254,17.708 42.5,5.036c5.057,-10.261 -4.105,-19.598 -12.919,-23.865c-6.937,-3.358 -21.234,-1.788 -26.285,4.314Z" style="fill:#993b26;"/><path d="M79.563,18.746c-3.151,3.807 -4.288,10.025 -3.012,13.267c4.728,12.018 33.139,16.187 38.848,4.604c4.623,-9.379 -3.752,-17.915 -11.809,-21.815c-6.342,-3.069 -19.41,-1.634 -24.027,3.944Z" style="fill:#803524;"/><path d="M79.58,19.862c-2.855,3.449 -3.885,9.083 -2.729,12.021c4.284,10.888 30.024,14.666 35.197,4.171c4.188,-8.498 -3.399,-16.231 -10.699,-19.765c-5.745,-2.781 -17.586,-1.48 -21.769,3.573Z" style="fill:#6d2e22;"/><path d="M79.597,20.979c-2.558,3.091 -3.481,8.141 -2.446,10.774c3.84,9.758 26.91,13.144 31.546,3.738c3.754,-7.616 -3.047,-14.547 -9.589,-17.714c-5.15,-2.493 -15.762,-1.328 -19.511,3.202Z" style="fill:#5d2920;"/><path d="M79.614,22.096c-2.262,2.733 -3.079,7.198 -2.162,9.526c3.395,8.629 23.794,11.623 27.893,3.306c3.32,-6.734 -2.693,-12.863 -8.478,-15.664c-4.554,-2.204 -13.937,-1.174 -17.253,2.832Z" style="fill:#4f251e;"/><path d="M79.632,23.212c-1.967,2.376 -2.677,6.257 -1.88,8.28c2.951,7.499 20.68,10.101 24.243,2.873c2.885,-5.853 -2.341,-11.179 -7.37,-13.613c-3.957,-1.916 -12.112,-1.02 -14.993,2.46Z" style="fill:#44211c;"/><path d="M79.649,24.329c-1.671,2.018 -2.273,5.314 -1.597,7.033c2.506,6.37 17.565,8.579 20.592,2.44c2.45,-4.972 -1.989,-9.496 -6.26,-11.563c-3.361,-1.627 -10.288,-0.866 -12.735,2.09Z" style="fill:#3a1e1a;"/><path d="M79.666,25.445c-1.374,1.661 -1.87,4.372 -1.313,5.786c2.061,5.241 14.45,7.059 16.94,2.008c2.016,-4.09 -1.636,-7.812 -5.15,-9.513c-2.765,-1.338 -8.464,-0.713 -10.477,1.719Z" style="fill:#321b18;"/><path d="M79.683,26.562c-1.078,1.303 -1.467,3.43 -1.031,4.539c1.618,4.11 11.336,5.537 13.29,1.575c1.581,-3.209 -1.284,-6.129 -4.04,-7.463c-2.169,-1.049 -6.64,-0.559 -8.219,1.349Z" style="fill:#2c1817;"/><path d="M79.7,27.679c-0.782,0.944 -1.064,2.487 -0.747,3.291c1.173,2.982 8.221,4.016 9.638,1.142c1.146,-2.326 -0.931,-4.444 -2.93,-5.411c-1.573,-0.762 -4.816,-0.406 -5.961,0.978Z" style="fill:#261615;"/><path d="M108.719,15.178c9.648,1.585 23.736,15.6 25.611,25.013c2.038,10.225 1.638,20.193 -2.558,30.159c-3.371,8.01 -9.23,7.164 -16.759,5.358c-11.706,-2.809 -6.865,-8.575 -1.178,-15.972c6.38,-8.288 11.04,-19.154 6.468,-29.471c-2.75,-6.205 -6.487,-10.776 -11.584,-15.087Z" style="fill:#a43e33;"/><path d="M114.373,19.097c8.12,1.45 19.454,14.543 20.624,23.364c1.271,9.582 0.483,18.933 -3.526,28.296c-3.223,7.525 -8.159,6.753 -14.471,5.088c-9.814,-2.59 -5.444,-8.018 -0.283,-14.976c5.789,-7.797 10.233,-18.006 6.814,-27.665c-2.057,-5.81 -5.025,-10.083 -9.158,-14.107Z" style="fill:#983a31;"/><path d="M119.838,23.009c6.6,1.315 15.249,13.487 15.762,21.719c0.558,8.942 -0.564,17.677 -4.335,26.439c-3.031,7.043 -7.048,6.346 -12.151,4.82c-7.933,-2.372 -4.066,-7.461 0.528,-13.982c5.154,-7.309 9.325,-16.863 7.005,-25.867c-1.395,-5.415 -3.616,-9.392 -6.809,-13.129Z" style="fill:#8d362f;"/><path d="M124.91,26.904c4.881,1.173 10.657,12.416 10.554,20.06c-0.113,8.304 -1.475,16.428 -4.83,24.596c-2.696,6.566 -5.674,5.948 -9.418,4.569c-5.821,-2.144 -2.612,-6.901 1.228,-12.995c4.308,-6.829 8.01,-15.736 6.803,-24.083c-0.727,-5.021 -2.16,-8.699 -4.337,-12.147Z" style="fill:#87342e;"/><path d="M129.626,31.705c3.29,1.018 6.476,11.143 5.856,18.062c-0.673,7.517 -2.198,14.883 -5.102,22.307c-2.336,5.967 -4.349,5.434 -6.839,4.219c-3.869,-1.888 -1.31,-6.221 1.782,-11.772c3.467,-6.22 6.666,-14.316 6.429,-21.86c-0.141,-4.538 -0.868,-7.854 -2.126,-10.956Z" style="fill:#7f312c;"/><path d="M133.326,39.678c1.675,0.789 2.471,8.986 1.511,14.621c-1.041,6.12 -2.528,12.128 -4.76,18.199c-1.794,4.88 -2.828,4.47 -4.056,3.511c-1.908,-1.491 -0.14,-5.045 2.023,-9.594c2.426,-5.098 4.877,-11.719 5.433,-17.852c0.334,-3.689 0.244,-6.377 -0.151,-8.885Z" style="fill:#7f312c;"/><path d="M119.376,48.161c1.266,-8.279 -5.826,-9.17 -8.266,3.123c-0.981,4.948 -12.151,2.584 -15.987,2.861c-8.461,0.61 -18.593,6.747 -19.715,14.107c-2.117,13.877 10.779,16.659 19.56,13.22c5.621,-2.2 11.964,-11.115 15.501,-15.8c0.698,-0.926 7.667,-11.04 8.907,-17.511Z" style="fill:#b0493c;"/><path d="M117.692,51.745c1.338,-6.893 -4.944,-7.95 -7.429,2.26c-1,4.11 -10.87,1.639 -14.287,1.703c-7.538,0.143 -16.704,4.851 -17.891,10.978c-2.239,11.554 9.155,14.453 17.05,11.95c5.053,-1.602 10.923,-8.807 14.187,-12.584c0.645,-0.747 7.101,-8.93 8.37,-14.307Z" style="fill:#ad5042;"/><path d="M115.625,55.998c1.319,-5.337 -4.16,-6.454 -6.553,1.429c-0.964,3.174 -9.554,0.784 -12.549,0.677c-6.604,-0.235 -14.73,3.031 -15.9,7.776c-2.208,8.947 7.707,11.741 14.675,10.145c4.459,-1.023 9.752,-6.396 12.692,-9.205c0.581,-0.555 6.408,-6.668 7.635,-10.822Z" style="fill:#ae564a;"/><path d="M113.332,59.195c1.24,-4.024 -3.446,-5.135 -5.659,0.787c-0.891,2.384 -8.225,0.153 -10.796,-0.069c-5.67,-0.488 -12.717,1.632 -13.816,5.209c-2.074,6.745 6.39,9.347 12.409,8.45c3.851,-0.574 8.506,-4.439 11.088,-6.452c0.51,-0.397 5.639,-4.803 6.774,-7.925Z" style="fill:#ac5a50;"/><path d="M110.861,62.196c1.101,-2.724 -2.809,-3.711 -4.757,0.28c-0.784,1.607 -6.898,-0.277 -9.049,-0.549c-4.746,-0.602 -10.687,0.535 -11.665,2.957c-1.845,4.566 5.211,6.759 10.27,6.42c3.238,-0.218 7.201,-2.673 9.397,-3.944c0.434,-0.251 4.802,-3.058 5.804,-5.164Z" style="fill:#ac5f57;"/><path d="M108.329,64.002c0.931,-1.712 -2.225,-2.521 -3.861,-0.027c-0.658,1.002 -5.589,-0.482 -7.329,-0.753c-3.839,-0.598 -8.672,-0.124 -9.499,1.398c-1.559,2.869 4.13,4.596 8.238,4.599c2.629,0.001 5.875,-1.411 7.674,-2.136c0.354,-0.143 3.936,-1.765 4.777,-3.081Z" style="fill:#a9615c;"/><path d="M105.78,65.32c0.732,-0.785 -1.701,-1.295 -2.982,-0.161c-0.516,0.456 -4.313,-0.447 -5.656,-0.644c-2.961,-0.435 -6.698,-0.393 -7.348,0.305c-1.225,1.316 3.158,2.364 6.33,2.523c2.031,0.102 4.549,-0.45 5.943,-0.728c0.276,-0.055 3.054,-0.696 3.713,-1.295Z" style="fill:#a96460;"/><path d="M109.524,58.342c-3.531,-4.712 -12.964,-6.903 -18.567,-4.921c-6.021,2.102 -11.273,8.941 -9.056,15.398c0.983,2.946 5.943,3.153 7.952,1.299c2.009,-1.854 2.272,-4.887 5.211,-5.873c3.784,-1.364 7.544,1.144 11.178,0.049c3.526,-1.017 4.365,-3.588 3.282,-5.952Z" style="fill:#b46358;"/><path d="M108.598,57.551c-3.299,-4.029 -12.075,-5.926 -17.277,-4.255c-5.591,1.773 -10.452,7.585 -8.369,13.096c0.922,2.515 5.534,2.706 7.396,1.133c1.862,-1.574 2.097,-4.158 4.826,-4.988c3.513,-1.152 7.017,0.998 10.392,0.077c3.275,-0.856 4.046,-3.045 3.032,-5.063Z" style="fill:#b7695e;"/><path d="M107.266,56.803c-2.953,-3.393 -10.791,-5.007 -15.431,-3.614c-4.987,1.478 -9.312,6.352 -7.442,10.989c0.83,2.115 4.946,2.286 6.605,0.968c1.658,-1.319 1.862,-3.491 4.296,-4.182c3.133,-0.961 6.266,0.854 9.276,0.087c2.921,-0.712 3.605,-2.55 2.696,-4.248Z" style="fill:#bd7064;"/><path d="M105.997,56.117c-2.624,-2.812 -9.567,-4.165 -13.672,-3.025c-4.413,1.209 -8.231,5.228 -6.563,9.064c0.739,1.751 4.385,1.902 5.85,0.816c1.466,-1.085 1.641,-2.88 3.795,-3.446c2.771,-0.785 5.549,0.722 8.213,0.095c2.584,-0.581 3.186,-2.098 2.377,-3.504Z" style="fill:#c1776b;"/><path d="M104.79,55.493c-2.308,-2.284 -8.403,-3.4 -12.001,-2.488c-3.867,0.967 -7.205,4.21 -5.731,7.322c0.653,1.42 3.852,1.553 5.133,0.677c1.282,-0.875 1.432,-2.327 3.32,-2.78c2.428,-0.628 4.87,0.601 7.205,0.101c2.265,-0.465 2.789,-1.691 2.074,-2.832Z" style="fill:#c67f70;"/><path d="M103.649,54.932c-2.011,-1.812 -7.302,-2.712 -10.421,-2.004c-3.352,0.751 -6.237,3.301 -4.949,5.763c0.572,1.123 3.347,1.238 4.457,0.551c1.109,-0.687 1.234,-1.833 2.87,-2.184c2.105,-0.488 4.228,0.49 6.252,0.103c1.964,-0.359 2.414,-1.327 1.791,-2.229Z" style="fill:#ca8477;"/><path d="M102.57,54.432c-1.728,-1.392 -6.261,-2.1 -8.928,-1.571c-2.866,0.561 -5.327,2.5 -4.215,4.386c0.494,0.861 2.87,0.96 3.818,0.438c0.947,-0.52 1.049,-1.396 2.449,-1.658c1.8,-0.365 3.62,0.39 5.351,0.102c1.68,-0.266 2.062,-1.005 1.525,-1.697Z" style="fill:#ce8a7d;"/><path d="M101.555,53.995c-1.461,-1.027 -5.281,-1.567 -7.524,-1.191c-2.411,0.398 -4.474,1.806 -3.529,3.192c0.42,0.633 2.421,0.716 3.216,0.339c0.795,-0.377 0.877,-1.018 2.054,-1.204c1.515,-0.259 3.051,0.303 4.507,0.1c1.413,-0.188 1.731,-0.726 1.276,-1.236Z" style="fill:#d28f80;"/><path d="M93.205,45.28c-1.809,1.515 -1.713,3.808 -0.071,6.34c0.211,0.323 -0.237,0.922 0.145,0.976c0.899,0.128 2.348,-0.228 3.247,-0.191c1.285,0.054 2.915,0.335 4.063,0.534c1.791,0.309 3.215,1.668 5.065,0.877c0.901,-0.385 1.21,-1.24 1.247,-2.141c0.09,-2.185 -1.527,-5.183 -3.613,-5.978c-2.178,-0.829 -8.202,-2.463 -10.083,-0.417Z" style="fill:#c0725b;"/><path d="M93.739,46.333c-1.537,1.288 -1.455,3.235 -0.06,5.386c0.179,0.276 -0.201,0.784 0.123,0.83c0.764,0.109 1.994,-0.194 2.759,-0.162c1.091,0.046 2.477,0.284 3.451,0.453c1.522,0.264 2.732,1.418 4.304,0.746c0.766,-0.327 1.027,-1.054 1.059,-1.819c0.077,-1.857 -1.297,-4.404 -3.07,-5.079c-1.85,-0.705 -6.967,-2.093 -8.566,-0.355Z" style="fill:#d09e81;"/><path d="M95.742,48.668c-0.912,0.764 -0.863,1.92 -0.035,3.197c0.106,0.162 -0.12,0.464 0.073,0.492c0.453,0.064 1.152,0.089 1.606,0.108c0.647,0.027 1.425,0.145 2.003,0.244c0.904,0.156 1.697,0.662 2.63,0.263c0.455,-0.194 0.61,-0.625 0.629,-1.08c0.046,-1.102 -0.77,-2.613 -1.822,-3.014c-1.098,-0.418 -4.135,-1.242 -5.084,-0.21Z" style="fill:#9c4638;"/><path d="M81.325,18.814c-2.089,1.894 -2.654,3.208 -3.629,5.359c-0.464,1.023 -0.687,3.242 -0.434,4.253c0.211,0.844 0.774,1.718 1.627,2.386c0.371,0.291 1.346,0.878 2.153,0.739c2.945,-0.511 0.065,-6.404 2.17,-8.931c0.565,-0.679 0.838,-1.518 1.526,-2.142c0.458,-0.415 1.677,-2.29 1.175,-2.789c-1.079,-1.069 -3.672,0.294 -4.588,1.125Z" style="fill:#ae7a53;"/><path d="M97.119,52.561c-2.815,-0.101 -4.134,0.447 -6.328,1.309c-1.042,0.41 -2.745,1.846 -3.267,2.748c-0.434,0.752 -0.638,1.772 -0.491,2.848c0.064,0.467 0.356,1.57 1.032,2.033c2.468,1.691 4.497,-4.548 7.763,-4.89c0.876,-0.093 1.656,-0.504 2.582,-0.471c0.618,0.023 2.796,-0.471 2.782,-1.179c-0.031,-1.521 -2.838,-2.354 -4.073,-2.398Z" style="fill:#decca6;"/><path d="M69.135,224.044c-3.151,0.154 -5.528,-6.779 -6.292,-13.408c1.238,4.45 3.546,9.235 6.472,9.093c2.927,-0.142 5.783,-5.179 7.523,-9.775c-1.507,6.739 -4.551,13.938 -7.703,14.09Z" style="fill:#ab1e4d;"/><path d="M69.135,224.044c-3.151,0.154 -5.528,-6.779 -6.292,-13.408c0.403,7.216 3.316,14.878 6.242,14.736c2.927,-0.142 6.954,-9.112 7.753,-15.418c-1.507,6.739 -4.551,13.938 -7.703,14.09Z" style="fill:#fef100;"/><path d="M62.843,210.636c1.238,4.45 3.546,9.235 6.472,9.093c2.927,-0.142 5.783,-5.179 7.523,-9.775c-5.135,11.485 -9.806,11.882 -13.995,0.682Z" style="fill:#ee381f;"/><path d="M83.863,148.742c2.198,0.33 2.747,8.93 1.224,19.144c-1.523,10.215 -4.558,18.277 -6.755,17.948c-2.197,-0.33 -2.747,-8.929 -1.224,-19.143c1.523,-10.216 4.558,-18.278 6.755,-17.949Z" style="fill:#ec1c24;"/><path d="M84.177,152.307c2.159,0.324 2.611,9.366 1.006,20.128c-1.604,10.761 -4.675,19.276 -6.833,18.952c-2.159,-0.324 -2.611,-9.365 -1.007,-20.127c1.605,-10.763 4.675,-19.276 6.834,-18.953Z" style="fill:#fefefe;"/><path d="M84.177,152.307c2.159,0.324 2.611,9.366 1.006,20.128c-1.604,10.761 -4.675,19.276 -6.833,18.952c-2.159,-0.324 -2.611,-9.365 -1.007,-20.127c-1.828,33.951 11.443,-7.172 6.834,-18.953Z" style="fill:#f0f6f9;"/><path d="M82.18,161.579c-0.285,0.107 -0.594,0.593 -0.898,1.355l0.55,3.812l-1.312,-1.268c-0.338,1.438 -0.63,3.161 -0.821,4.973c-0.479,4.553 -0.147,7.995 0.74,7.662c0.887,-0.334 2.002,-4.32 2.482,-8.874c0.479,-4.553 0.146,-7.994 -0.741,-7.66Z"/><path d="M90.219,111.818c1.85,0.277 2.467,7.048 1.756,16.392c0.058,-6.386 -0.839,-10.763 -2.557,-11.02c-1.718,-0.258 -3.853,3.667 -5.66,9.792c2.045,-9.145 4.611,-15.441 6.461,-15.164Z" style="fill:#ec1c24;"/><path d="M53.7,146.386c2.049,-0.106 4.122,7.576 4.615,17.102c0.493,9.527 -0.777,17.383 -2.826,17.489c-2.049,0.107 -4.123,-7.576 -4.615,-17.102c-0.493,-9.526 0.777,-17.382 2.826,-17.489Z" style="fill:#ec1c24;"/><path d="M54.638,149.555c2.013,-0.105 4.078,7.996 4.597,18.033c0.519,10.037 -0.7,18.308 -2.714,18.412c-2.013,0.105 -4.078,-7.995 -4.598,-18.032c-0.518,-10.037 0.701,-18.308 2.715,-18.413Z" style="fill:#fefefe;"/><path d="M54.638,149.555c2.013,-0.105 4.078,7.996 4.597,18.033c0.519,10.037 -0.7,18.308 -2.714,18.412c-2.013,0.105 -4.078,-7.995 -4.598,-18.032c4.565,31.067 9.045,-8.599 2.715,-18.413Z" style="fill:#f0f6f9;"/><path d="M54.529,158.314c-0.239,0.15 -0.43,0.647 -0.566,1.393l1.197,3.348l-1.42,-0.905c-0.043,1.364 0.009,2.977 0.168,4.652c0.4,4.21 1.331,7.263 2.073,6.799c0.742,-0.466 1.021,-4.279 0.621,-8.489c-0.4,-4.209 -1.332,-7.263 -2.073,-6.798Z"/><path d="M52.363,109.712c1.725,-0.089 3.524,5.925 4.591,14.514c-1.116,-5.791 -2.73,-9.587 -4.332,-9.504c-1.603,0.083 -2.817,4.029 -3.33,9.906c0.176,-8.655 1.345,-14.826 3.071,-14.916Z" style="fill:#ec1c24;"/><path d="M45.278,178.985c-8.11,-2.662 -16.858,-2.485 -24.648,-6.334c-1.738,-0.858 -0.566,-4.688 -1.581,-6.622c-0.302,-0.573 -1.588,-0.112 -1.601,0.57c-0.03,1.717 2.476,4.099 1.115,4.494c-1.948,0.566 -2.836,-2.912 -4.797,-3.423c-0.634,-0.165 -1.237,1.631 -0.773,2.188c1.209,1.449 4.498,0.525 3.791,2.404c-0.504,1.338 -2.54,-0.373 -4.069,0.953c-0.57,0.496 -0.667,1.96 0.005,2.199c1.884,0.671 3.581,-2.556 4.627,-1.422c1.289,1.399 -1.444,1.331 -2.307,3.153c-0.287,0.607 0.317,1.868 0.817,1.528c1.845,-1.249 2.221,-4.033 4.321,-3.788c8.508,0.996 16.267,4.522 24.783,5.754c0.458,0.066 0.763,-1.507 0.317,-1.654Z" style="fill:#f37116;"/><path d="M112.079,240.197c0.303,5.244 5.279,18.166 14.428,25.164c0.795,0.608 0.997,-0.002 1.761,-0.177c1.963,-0.451 3.538,1.886 2.135,3.25c-3.403,3.31 -3.85,4.672 -7.422,7.731c-1.519,1.3 -3.447,1.863 -4.962,0.558c-1.508,-1.301 -2.697,-4.308 -1.292,-5.719c3.293,-3.304 11.297,-2.252 7.736,-4.799c-4.692,-3.359 -13.573,-14.857 -14.539,-25.751c-0.167,-3.543 1.621,-4.078 2.155,-0.257Z" style="fill:#f0471d;"/><path d="M143.115,179.695c10.227,-0.685 26.392,-4.021 36.573,-6.195c2.271,-0.486 1.959,-5.338 3.683,-7.303c0.511,-0.583 1.889,0.346 1.715,1.151c-0.44,2.025 -4.031,4.069 -2.549,4.943c2.123,1.251 4.124,-2.567 6.56,-2.577c0.788,-0.004 0.997,2.288 0.3,2.802c-1.816,1.339 -5.408,-0.737 -5.101,1.683c0.218,1.723 3.075,0.327 4.497,2.345c0.531,0.753 0.239,2.502 -0.614,2.581c-2.39,0.221 -3.482,-4.08 -5.021,-3.063c-1.896,1.255 1.321,1.997 1.826,4.397c0.169,0.8 -0.887,2.099 -1.379,1.549c-1.811,-2.023 -1.482,-5.406 -4.007,-5.749c-10.231,-1.391 -21.687,4.534 -37.944,6.333c-1.214,0.134 0.9,-2.86 1.461,-2.897Z" style="fill:#f0471d;"/><path d="M88.618,235.051c-6.49,-1.125 -31.657,1.892 -42.811,11.12c-0.968,0.802 -0.532,1.115 -0.536,2.103c-0.011,2.536 -3.313,3.803 -4.578,1.691c-3.068,-5.12 -4.604,-6.057 -7.318,-11.314c-1.154,-2.233 -1.29,-4.76 0.736,-6.246c2.017,-1.478 6.028,-2.08 7.348,0.047c3.093,4.983 -0.29,14.702 3.651,10.862c5.521,-5.378 30.333,-13.595 43.808,-10.981c4.373,0.806 4.516,3.154 -0.3,2.718Z" style="fill:#f0471d;"/></g><text x="183.218px" y="274.691px" style="font-family:'ASUBackfire', 'ASU Backfire';font-size:288px;fill:#5a2820;">C<tspan x="265.01px 317.138px 379.346px 441.554px 491.09px 578.93px 641.714px 691.826px 732.722px " y="274.691px 274.691px 274.691px 274.691px 274.691px 274.691px 274.691px 274.691px 274.691px ">ashewbert</tspan></text></svg>